# Blender 3.5.1
# www.blender.org
o meriamkanan
v -1.428947 0.393729 -0.980578
v -1.428947 0.637196 -0.980578
v -1.428947 0.393729 -0.816723
v -1.428947 0.637196 -0.816723
v -1.494032 0.406075 -0.966911
v -1.494032 0.624850 -0.966911
v -1.494032 0.406075 -0.830390
v -1.494032 0.624850 -0.830390
v -1.494032 0.637196 -0.816723
v -1.494032 0.393729 -0.816723
v -1.494032 0.393729 -0.980578
v -1.494032 0.637196 -0.980578
v -1.446684 0.406075 -0.966911
v -1.446684 0.624850 -0.966911
v -1.446684 0.406075 -0.830390
v -1.446684 0.624850 -0.830390
v -1.428947 0.393729 -0.489013
v -1.428947 0.637196 -0.489013
v -1.428947 0.393729 -0.325158
v -1.428947 0.637196 -0.325158
v -1.494032 0.406075 -0.475346
v -1.494032 0.624850 -0.475346
v -1.494032 0.406075 -0.338825
v -1.494032 0.624850 -0.338825
v -1.494032 0.637196 -0.325158
v -1.494032 0.393729 -0.325158
v -1.494032 0.393729 -0.489013
v -1.494032 0.637196 -0.489013
v -1.446684 0.406075 -0.475346
v -1.446684 0.624850 -0.475346
v -1.446684 0.406075 -0.338825
v -1.446684 0.624850 -0.338825
v -1.428947 0.393729 0.002553
v -1.428947 0.637196 0.002553
v -1.428947 0.393729 0.166408
v -1.428947 0.637196 0.166408
v -1.494032 0.406075 0.016220
v -1.494032 0.624850 0.016220
v -1.494032 0.406075 0.152740
v -1.494032 0.624850 0.152740
v -1.494032 0.637196 0.166408
v -1.494032 0.393729 0.166408
v -1.494032 0.393729 0.002553
v -1.494032 0.637196 0.002553
v -1.446684 0.406075 0.016220
v -1.446684 0.624850 0.016220
v -1.446684 0.406075 0.152740
v -1.446684 0.624850 0.152740
v -1.428947 0.393729 0.494118
v -1.428947 0.637196 0.494118
v -1.428947 0.393729 0.657973
v -1.428947 0.637196 0.657973
v -1.494032 0.406075 0.507785
v -1.494032 0.624850 0.507785
v -1.494032 0.406075 0.644306
v -1.494032 0.624850 0.644306
v -1.494032 0.637196 0.657973
v -1.494032 0.393729 0.657973
v -1.494032 0.393729 0.494118
v -1.494032 0.637196 0.494118
v -1.446684 0.406075 0.507785
v -1.446684 0.624850 0.507785
v -1.446684 0.406075 0.644306
v -1.446684 0.624850 0.644306
v -1.428947 0.393729 0.985683
v -1.428947 0.637196 0.985683
v -1.428947 0.393729 1.149539
v -1.428947 0.637196 1.149539
v -1.494032 0.406075 0.999351
v -1.494032 0.624850 0.999351
v -1.494032 0.406075 1.135871
v -1.494032 0.624850 1.135871
v -1.494032 0.637196 1.149539
v -1.494032 0.393729 1.149539
v -1.494032 0.393729 0.985683
v -1.494032 0.637196 0.985683
v -1.446684 0.406075 0.999351
v -1.446684 0.624850 0.999351
v -1.446684 0.406075 1.135871
v -1.446684 0.624850 1.135871
vn 1.0000 -0.0000 -0.0000
vn -0.0000 -0.0000 1.0000
vn -0.0000 -1.0000 -0.0000
vn -0.0000 -0.0000 -1.0000
vn -0.0000 1.0000 -0.0000
vn -1.0000 -0.0000 -0.0000
vt 0.375000 0.000000
vt 0.375000 1.000000
vt 0.125000 0.750000
vt 0.625000 0.000000
vt 0.625000 1.000000
vt 0.875000 0.750000
vt 0.125000 0.500000
vt 0.375000 0.250000
vt 0.625000 0.250000
vt 0.875000 0.500000
vt 0.395853 0.729147
vt 0.604147 0.729147
vt 0.395853 0.520853
vt 0.604147 0.520853
vt 0.625000 0.500000
vt 0.375000 0.500000
vt 0.375000 0.750000
vt 0.625000 0.750000
vt 0.395853 0.729147
vt 0.604147 0.729147
vt 0.395853 0.520853
vt 0.604147 0.520853
vt 0.375000 0.000000
vt 0.375000 1.000000
vt 0.125000 0.750000
vt 0.625000 0.000000
vt 0.625000 1.000000
vt 0.875000 0.750000
vt 0.125000 0.500000
vt 0.375000 0.250000
vt 0.625000 0.250000
vt 0.875000 0.500000
vt 0.395853 0.729147
vt 0.604147 0.729147
vt 0.395853 0.520853
vt 0.604147 0.520853
vt 0.625000 0.500000
vt 0.375000 0.500000
vt 0.375000 0.750000
vt 0.625000 0.750000
vt 0.395853 0.729147
vt 0.604147 0.729147
vt 0.395853 0.520853
vt 0.604147 0.520853
vt 0.375000 0.000000
vt 0.375000 1.000000
vt 0.125000 0.750000
vt 0.625000 0.000000
vt 0.625000 1.000000
vt 0.875000 0.750000
vt 0.125000 0.500000
vt 0.375000 0.250000
vt 0.625000 0.250000
vt 0.875000 0.500000
vt 0.395853 0.729147
vt 0.604147 0.729147
vt 0.395853 0.520853
vt 0.604147 0.520853
vt 0.625000 0.500000
vt 0.375000 0.500000
vt 0.375000 0.750000
vt 0.625000 0.750000
vt 0.395853 0.729147
vt 0.604147 0.729147
vt 0.395853 0.520853
vt 0.604147 0.520853
vt 0.375000 0.000000
vt 0.375000 1.000000
vt 0.125000 0.750000
vt 0.625000 0.000000
vt 0.625000 1.000000
vt 0.875000 0.750000
vt 0.125000 0.500000
vt 0.375000 0.250000
vt 0.625000 0.250000
vt 0.875000 0.500000
vt 0.395853 0.729147
vt 0.604147 0.729147
vt 0.395853 0.520853
vt 0.604147 0.520853
vt 0.625000 0.500000
vt 0.375000 0.500000
vt 0.375000 0.750000
vt 0.625000 0.750000
vt 0.395853 0.729147
vt 0.604147 0.729147
vt 0.395853 0.520853
vt 0.604147 0.520853
vt 0.375000 0.000000
vt 0.375000 1.000000
vt 0.125000 0.750000
vt 0.625000 0.000000
vt 0.625000 1.000000
vt 0.875000 0.750000
vt 0.125000 0.500000
vt 0.375000 0.250000
vt 0.625000 0.250000
vt 0.875000 0.500000
vt 0.395853 0.729147
vt 0.604147 0.729147
vt 0.395853 0.520853
vt 0.604147 0.520853
vt 0.625000 0.500000
vt 0.375000 0.500000
vt 0.375000 0.750000
vt 0.625000 0.750000
vt 0.395853 0.729147
vt 0.604147 0.729147
vt 0.395853 0.520853
vt 0.604147 0.520853
s 0
f 2/4/1 3/8/1 1/1/1
f 4/9/2 10/16/2 3/8/2
f 6/12/3 16/22/3 8/14/3
f 12/18/4 1/2/4 11/17/4
f 10/16/3 1/3/3 3/7/3
f 4/10/5 12/18/5 9/15/5
f 7/13/6 9/15/6 8/14/6
f 5/11/6 10/16/6 7/13/6
f 8/14/6 12/18/6 6/12/6
f 6/12/6 11/17/6 5/11/6
f 16/22/6 13/19/6 15/21/6
f 8/14/4 15/21/4 7/13/4
f 5/11/2 14/20/2 6/12/2
f 7/13/5 13/19/5 5/11/5
f 18/26/1 19/30/1 17/23/1
f 20/31/2 26/38/2 19/30/2
f 22/34/3 32/44/3 24/36/3
f 28/40/4 17/24/4 27/39/4
f 26/38/3 17/25/3 19/29/3
f 20/32/5 28/40/5 25/37/5
f 23/35/6 25/37/6 24/36/6
f 21/33/6 26/38/6 23/35/6
f 24/36/6 28/40/6 22/34/6
f 22/34/6 27/39/6 21/33/6
f 32/44/6 29/41/6 31/43/6
f 24/36/4 31/43/4 23/35/4
f 21/33/2 30/42/2 22/34/2
f 23/35/5 29/41/5 21/33/5
f 34/48/1 35/52/1 33/45/1
f 36/53/2 42/60/2 35/52/2
f 38/56/3 48/66/3 40/58/3
f 44/62/4 33/46/4 43/61/4
f 42/60/3 33/47/3 35/51/3
f 36/54/5 44/62/5 41/59/5
f 39/57/6 41/59/6 40/58/6
f 37/55/6 42/60/6 39/57/6
f 40/58/6 44/62/6 38/56/6
f 38/56/6 43/61/6 37/55/6
f 48/66/6 45/63/6 47/65/6
f 40/58/4 47/65/4 39/57/4
f 37/55/2 46/64/2 38/56/2
f 39/57/5 45/63/5 37/55/5
f 50/70/1 51/74/1 49/67/1
f 52/75/2 58/82/2 51/74/2
f 54/78/3 64/88/3 56/80/3
f 60/84/4 49/68/4 59/83/4
f 58/82/3 49/69/3 51/73/3
f 52/76/5 60/84/5 57/81/5
f 55/79/6 57/81/6 56/80/6
f 53/77/6 58/82/6 55/79/6
f 56/80/6 60/84/6 54/78/6
f 54/78/6 59/83/6 53/77/6
f 64/88/6 61/85/6 63/87/6
f 56/80/4 63/87/4 55/79/4
f 53/77/2 62/86/2 54/78/2
f 55/79/5 61/85/5 53/77/5
f 66/92/1 67/96/1 65/89/1
f 68/97/2 74/104/2 67/96/2
f 70/100/3 80/110/3 72/102/3
f 76/106/4 65/90/4 75/105/4
f 74/104/3 65/91/3 67/95/3
f 68/98/5 76/106/5 73/103/5
f 71/101/6 73/103/6 72/102/6
f 69/99/6 74/104/6 71/101/6
f 72/102/6 76/106/6 70/100/6
f 70/100/6 75/105/6 69/99/6
f 80/110/6 77/107/6 79/109/6
f 72/102/4 79/109/4 71/101/4
f 69/99/2 78/108/2 70/100/2
f 71/101/5 77/107/5 69/99/5
f 2/4/1 4/9/1 3/8/1
f 4/9/2 9/15/2 10/16/2
f 6/12/3 14/20/3 16/22/3
f 12/18/4 2/5/4 1/2/4
f 10/16/3 11/17/3 1/3/3
f 4/10/5 2/6/5 12/18/5
f 7/13/6 10/16/6 9/15/6
f 5/11/6 11/17/6 10/16/6
f 8/14/6 9/15/6 12/18/6
f 6/12/6 12/18/6 11/17/6
f 16/22/6 14/20/6 13/19/6
f 8/14/4 16/22/4 15/21/4
f 5/11/2 13/19/2 14/20/2
f 7/13/5 15/21/5 13/19/5
f 18/26/1 20/31/1 19/30/1
f 20/31/2 25/37/2 26/38/2
f 22/34/3 30/42/3 32/44/3
f 28/40/4 18/27/4 17/24/4
f 26/38/3 27/39/3 17/25/3
f 20/32/5 18/28/5 28/40/5
f 23/35/6 26/38/6 25/37/6
f 21/33/6 27/39/6 26/38/6
f 24/36/6 25/37/6 28/40/6
f 22/34/6 28/40/6 27/39/6
f 32/44/6 30/42/6 29/41/6
f 24/36/4 32/44/4 31/43/4
f 21/33/2 29/41/2 30/42/2
f 23/35/5 31/43/5 29/41/5
f 34/48/1 36/53/1 35/52/1
f 36/53/2 41/59/2 42/60/2
f 38/56/3 46/64/3 48/66/3
f 44/62/4 34/49/4 33/46/4
f 42/60/3 43/61/3 33/47/3
f 36/54/5 34/50/5 44/62/5
f 39/57/6 42/60/6 41/59/6
f 37/55/6 43/61/6 42/60/6
f 40/58/6 41/59/6 44/62/6
f 38/56/6 44/62/6 43/61/6
f 48/66/6 46/64/6 45/63/6
f 40/58/4 48/66/4 47/65/4
f 37/55/2 45/63/2 46/64/2
f 39/57/5 47/65/5 45/63/5
f 50/70/1 52/75/1 51/74/1
f 52/75/2 57/81/2 58/82/2
f 54/78/3 62/86/3 64/88/3
f 60/84/4 50/71/4 49/68/4
f 58/82/3 59/83/3 49/69/3
f 52/76/5 50/72/5 60/84/5
f 55/79/6 58/82/6 57/81/6
f 53/77/6 59/83/6 58/82/6
f 56/80/6 57/81/6 60/84/6
f 54/78/6 60/84/6 59/83/6
f 64/88/6 62/86/6 61/85/6
f 56/80/4 64/88/4 63/87/4
f 53/77/2 61/85/2 62/86/2
f 55/79/5 63/87/5 61/85/5
f 66/92/1 68/97/1 67/96/1
f 68/97/2 73/103/2 74/104/2
f 70/100/3 78/108/3 80/110/3
f 76/106/4 66/93/4 65/90/4
f 74/104/3 75/105/3 65/91/3
f 68/98/5 66/94/5 76/106/5
f 71/101/6 74/104/6 73/103/6
f 69/99/6 75/105/6 74/104/6
f 72/102/6 73/103/6 76/106/6
f 70/100/6 76/106/6 75/105/6
f 80/110/6 78/108/6 77/107/6
f 72/102/4 80/110/4 79/109/4
f 69/99/2 77/107/2 78/108/2
f 71/101/5 79/109/5 77/107/5
