# Blender 3.5.1
# www.blender.org
o Cylinder.032
v -0.330782 6.828676 0.007259
v -0.408537 7.127732 0.007259
v -0.330972 6.828627 0.008980
v -0.408727 7.127683 0.008980
v -0.331534 6.828480 0.010635
v -0.409289 7.127537 0.010635
v -0.332447 6.828243 0.012160
v -0.410201 7.127299 0.012160
v -0.333675 6.827924 0.013497
v -0.411429 7.126980 0.013497
v -0.335171 6.827535 0.014594
v -0.412926 7.126591 0.014594
v -0.336878 6.827091 0.015409
v -0.414633 7.126147 0.015409
v -0.338731 6.826609 0.015911
v -0.416485 7.125666 0.015911
v -0.340657 6.826108 0.016081
v -0.418412 7.125165 0.016081
v -0.342584 6.825607 0.015911
v -0.420338 7.124664 0.015911
v -0.344436 6.825126 0.015409
v -0.422191 7.124182 0.015409
v -0.346143 6.824682 0.014594
v -0.423898 7.123738 0.014594
v -0.347640 6.824293 0.013497
v -0.425395 7.123349 0.013497
v -0.348868 6.823974 0.012160
v -0.426623 7.123030 0.012160
v -0.349781 6.823736 0.010635
v -0.427535 7.122793 0.010635
v -0.350342 6.823590 0.008980
v -0.428097 7.122646 0.008980
v -0.350532 6.823541 0.007259
v -0.428287 7.122597 0.007259
v -0.350342 6.823590 0.005537
v -0.428097 7.122646 0.005537
v -0.349781 6.823736 0.003882
v -0.427535 7.122793 0.003882
v -0.348868 6.823974 0.002357
v -0.426623 7.123030 0.002357
v -0.347640 6.824293 0.001020
v -0.425395 7.123349 0.001020
v -0.346143 6.824682 -0.000077
v -0.423898 7.123738 -0.000077
v -0.344436 6.825126 -0.000892
v -0.422191 7.124182 -0.000892
v -0.342584 6.825607 -0.001394
v -0.420338 7.124664 -0.001394
v -0.340657 6.826108 -0.001564
v -0.418412 7.125165 -0.001564
v -0.338731 6.826609 -0.001394
v -0.416485 7.125666 -0.001394
v -0.336878 6.827091 -0.000892
v -0.414633 7.126147 -0.000892
v -0.335171 6.827535 -0.000077
v -0.412926 7.126591 -0.000077
v -0.333675 6.827924 0.001020
v -0.411429 7.126980 0.001020
v -0.332446 6.828243 0.002357
v -0.410201 7.127299 0.002357
v -0.331534 6.828480 0.003882
v -0.409289 7.127537 0.003882
v -0.330972 6.828627 0.005537
v -0.408727 7.127683 0.005537
vn 0.9616 0.2500 0.1132
vn 0.9132 0.2374 0.3311
vn 0.8232 0.2140 0.5258
vn 0.7020 0.1825 0.6884
vn 0.5601 0.1456 0.8155
vn 0.4060 0.1056 0.9077
vn 0.2455 0.0638 0.9673
vn 0.0821 0.0214 0.9964
vn -0.0821 -0.0214 0.9964
vn -0.2455 -0.0638 0.9673
vn -0.4060 -0.1056 0.9077
vn -0.5601 -0.1456 0.8155
vn -0.7020 -0.1825 0.6884
vn -0.8232 -0.2140 0.5258
vn -0.9132 -0.2374 0.3311
vn -0.9616 -0.2500 0.1132
vn -0.9616 -0.2500 -0.1132
vn -0.9132 -0.2374 -0.3311
vn -0.8232 -0.2140 -0.5258
vn -0.7020 -0.1825 -0.6884
vn -0.5601 -0.1456 -0.8155
vn -0.4060 -0.1056 -0.9077
vn -0.2455 -0.0638 -0.9673
vn -0.0821 -0.0214 -0.9964
vn 0.0821 0.0214 -0.9964
vn 0.2455 0.0638 -0.9673
vn 0.4060 0.1056 -0.9077
vn 0.5601 0.1456 -0.8155
vn 0.7020 0.1825 -0.6884
vn 0.8232 0.2140 -0.5258
vn -0.2516 0.9678 -0.0000
vn 0.9132 0.2374 -0.3311
vn 0.9616 0.2500 -0.1132
vn 0.2516 -0.9678 -0.0000
vn -0.2516 0.9678 -0.0001
vn -0.2516 0.9678 0.0001
vn 0.2516 -0.9678 -0.0001
vn 0.2516 -0.9678 0.0001
vt 1.000000 0.500000
vt 0.000000 0.500000
vt 0.750000 0.490000
vt 1.000000 1.000000
vt 0.250000 0.490000
vt 0.000000 1.000000
vt 0.968750 0.500000
vt 0.796822 0.485388
vt 0.968750 1.000000
vt 0.296822 0.485388
vt 0.937500 0.500000
vt 0.841844 0.471731
vt 0.937500 1.000000
vt 0.341844 0.471731
vt 0.906250 0.500000
vt 0.883337 0.449553
vt 0.906250 1.000000
vt 0.383337 0.449553
vt 0.875000 0.500000
vt 0.919706 0.419706
vt 0.875000 1.000000
vt 0.419706 0.419706
vt 0.843750 0.500000
vt 0.949553 0.383337
vt 0.843750 1.000000
vt 0.449553 0.383337
vt 0.812500 0.500000
vt 0.971731 0.341844
vt 0.812500 1.000000
vt 0.471731 0.341844
vt 0.781250 0.500000
vt 0.985388 0.296822
vt 0.781250 1.000000
vt 0.485388 0.296822
vt 0.750000 0.500000
vt 0.990000 0.250000
vt 0.750000 1.000000
vt 0.490000 0.250000
vt 0.718750 0.500000
vt 0.985388 0.203178
vt 0.718750 1.000000
vt 0.485388 0.203178
vt 0.687500 0.500000
vt 0.971731 0.158156
vt 0.687500 1.000000
vt 0.471731 0.158156
vt 0.656250 0.500000
vt 0.949553 0.116663
vt 0.656250 1.000000
vt 0.449553 0.116663
vt 0.625000 0.500000
vt 0.919706 0.080294
vt 0.625000 1.000000
vt 0.419706 0.080294
vt 0.593750 0.500000
vt 0.883337 0.050447
vt 0.593750 1.000000
vt 0.383337 0.050447
vt 0.562500 0.500000
vt 0.841844 0.028269
vt 0.562500 1.000000
vt 0.341844 0.028269
vt 0.531250 0.500000
vt 0.796822 0.014612
vt 0.531250 1.000000
vt 0.296822 0.014612
vt 0.500000 0.500000
vt 0.750000 0.010000
vt 0.500000 1.000000
vt 0.250000 0.010000
vt 0.468750 0.500000
vt 0.703178 0.014612
vt 0.468750 1.000000
vt 0.203178 0.014612
vt 0.437500 0.500000
vt 0.658156 0.028269
vt 0.437500 1.000000
vt 0.158156 0.028269
vt 0.406250 0.500000
vt 0.616663 0.050447
vt 0.406250 1.000000
vt 0.116663 0.050447
vt 0.375000 0.500000
vt 0.580294 0.080294
vt 0.375000 1.000000
vt 0.080294 0.080294
vt 0.343750 0.500000
vt 0.550447 0.116663
vt 0.343750 1.000000
vt 0.050447 0.116663
vt 0.312500 0.500000
vt 0.528269 0.158156
vt 0.312500 1.000000
vt 0.028269 0.158156
vt 0.281250 0.500000
vt 0.514611 0.203179
vt 0.281250 1.000000
vt 0.014611 0.203179
vt 0.250000 0.500000
vt 0.510000 0.250000
vt 0.250000 1.000000
vt 0.010000 0.250000
vt 0.218750 0.500000
vt 0.514612 0.296822
vt 0.218750 1.000000
vt 0.014612 0.296822
vt 0.187500 0.500000
vt 0.528269 0.341844
vt 0.187500 1.000000
vt 0.028269 0.341844
vt 0.156250 0.500000
vt 0.550447 0.383337
vt 0.156250 1.000000
vt 0.050447 0.383337
vt 0.125000 0.500000
vt 0.580295 0.419706
vt 0.125000 1.000000
vt 0.080295 0.419706
vt 0.093750 0.500000
vt 0.616663 0.449553
vt 0.093750 1.000000
vt 0.116663 0.449553
vt 0.062500 0.500000
vt 0.658156 0.471731
vt 0.158156 0.471731
vt 0.062500 1.000000
vt 0.031250 0.500000
vt 0.703179 0.485389
vt 0.203179 0.485389
vt 0.031250 1.000000
s 0
f 2/4/1 3/7/1 1/1/1
f 4/9/2 5/11/2 3/7/2
f 6/13/3 7/15/3 5/11/3
f 8/17/4 9/19/4 7/15/4
f 10/21/5 11/23/5 9/19/5
f 12/25/6 13/27/6 11/23/6
f 14/29/7 15/31/7 13/27/7
f 16/33/8 17/35/8 15/31/8
f 18/37/9 19/39/9 17/35/9
f 20/41/10 21/43/10 19/39/10
f 22/45/11 23/47/11 21/43/11
f 24/49/12 25/51/12 23/47/12
f 26/53/13 27/55/13 25/51/13
f 28/57/14 29/59/14 27/55/14
f 30/61/15 31/63/15 29/59/15
f 32/65/16 33/67/16 31/63/16
f 34/69/17 35/71/17 33/67/17
f 36/73/18 37/75/18 35/71/18
f 38/77/19 39/79/19 37/75/19
f 40/81/20 41/83/20 39/79/20
f 42/85/21 43/87/21 41/83/21
f 44/89/22 45/91/22 43/87/22
f 46/93/23 47/95/23 45/91/23
f 48/97/24 49/99/24 47/95/24
f 50/101/25 51/103/25 49/99/25
f 52/105/26 53/107/26 51/103/26
f 54/109/27 55/111/27 53/107/27
f 56/113/28 57/115/28 55/111/28
f 58/117/29 59/119/29 57/115/29
f 60/121/30 61/123/30 59/119/30
f 38/78/31 22/46/31 6/14/31
f 62/126/32 63/127/32 61/123/32
f 64/130/33 1/2/33 63/127/33
f 31/64/34 47/96/34 63/128/34
f 2/4/1 4/9/1 3/7/1
f 4/9/2 6/13/2 5/11/2
f 6/13/3 8/17/3 7/15/3
f 8/17/4 10/21/4 9/19/4
f 10/21/5 12/25/5 11/23/5
f 12/25/6 14/29/6 13/27/6
f 14/29/7 16/33/7 15/31/7
f 16/33/8 18/37/8 17/35/8
f 18/37/9 20/41/9 19/39/9
f 20/41/10 22/45/10 21/43/10
f 22/45/11 24/49/11 23/47/11
f 24/49/12 26/53/12 25/51/12
f 26/53/13 28/57/13 27/55/13
f 28/57/14 30/61/14 29/59/14
f 30/61/15 32/65/15 31/63/15
f 32/65/16 34/69/16 33/67/16
f 34/69/17 36/73/17 35/71/17
f 36/73/18 38/77/18 37/75/18
f 38/77/19 40/81/19 39/79/19
f 40/81/20 42/85/20 41/83/20
f 42/85/21 44/89/21 43/87/21
f 44/89/22 46/93/22 45/91/22
f 46/93/23 48/97/23 47/95/23
f 48/97/24 50/101/24 49/99/24
f 50/101/25 52/105/25 51/103/25
f 52/105/26 54/109/26 53/107/26
f 54/109/27 56/113/27 55/111/27
f 56/113/28 58/117/28 57/115/28
f 58/117/29 60/121/29 59/119/29
f 60/121/30 62/126/30 61/123/30
f 6/14/31 4/10/31 2/5/31
f 2/5/31 64/129/31 62/125/31
f 62/125/31 60/122/31 58/118/31
f 58/118/31 56/114/31 54/110/31
f 54/110/35 52/106/35 50/102/35
f 50/102/36 48/98/36 46/94/36
f 46/94/31 44/90/31 42/86/31
f 42/86/31 40/82/31 38/78/31
f 38/78/31 36/74/31 34/70/31
f 34/70/31 32/66/31 30/62/31
f 30/62/31 28/58/31 26/54/31
f 26/54/31 24/50/31 22/46/31
f 22/46/36 20/42/36 18/38/36
f 18/38/35 16/34/35 14/30/35
f 14/30/31 12/26/31 10/22/31
f 10/22/31 8/18/31 6/14/31
f 6/14/31 2/5/31 62/125/31
f 62/125/31 58/118/31 54/110/31
f 54/110/31 50/102/31 46/94/31
f 46/94/31 42/86/31 38/78/31
f 38/78/31 34/70/31 30/62/31
f 30/62/31 26/54/31 22/46/31
f 22/46/31 18/38/31 14/30/31
f 14/30/31 10/22/31 6/14/31
f 6/14/31 62/125/31 54/110/31
f 54/110/31 46/94/31 38/78/31
f 38/78/31 30/62/31 22/46/31
f 22/46/31 14/30/31 6/14/31
f 6/14/31 54/110/31 38/78/31
f 62/126/32 64/130/32 63/127/32
f 64/130/33 2/6/33 1/2/33
f 63/128/34 1/3/34 3/8/34
f 3/8/34 5/12/34 7/16/34
f 7/16/34 9/20/34 11/24/34
f 11/24/34 13/28/34 15/32/34
f 15/32/34 17/36/34 19/40/34
f 19/40/34 21/44/34 23/48/34
f 23/48/34 25/52/34 27/56/34
f 27/56/34 29/60/34 31/64/34
f 31/64/34 33/68/34 35/72/34
f 35/72/34 37/76/34 39/80/34
f 39/80/34 41/84/34 43/88/34
f 43/88/34 45/92/34 47/96/34
f 47/96/37 49/100/37 51/104/37
f 51/104/38 53/108/38 55/112/38
f 55/112/34 57/116/34 59/120/34
f 59/120/34 61/124/34 63/128/34
f 63/128/34 3/8/34 7/16/34
f 7/16/34 11/24/34 15/32/34
f 15/32/34 19/40/34 23/48/34
f 23/48/34 27/56/34 31/64/34
f 31/64/34 35/72/34 39/80/34
f 39/80/34 43/88/34 47/96/34
f 47/96/34 51/104/34 55/112/34
f 55/112/34 59/120/34 63/128/34
f 63/128/34 7/16/34 15/32/34
f 15/32/34 23/48/34 31/64/34
f 31/64/34 39/80/34 47/96/34
f 47/96/34 55/112/34 63/128/34
f 63/128/34 15/32/34 31/64/34
