# Blender 3.5.1
# www.blender.org
o pintu
v 0.012127 0.996297 -1.256580
v 0.012127 1.559775 -1.256580
v 0.012127 0.996297 -1.275767
v 0.012127 1.559775 -1.275767
v 0.291705 0.996297 -1.256580
v 0.291705 1.559775 -1.256580
v 0.291705 0.996297 -1.275767
v 0.291705 1.559775 -1.275767
v 0.051985 1.226036 -1.245255
v 0.061217 1.233088 -1.238548
v 0.048459 1.233088 -1.234402
v 0.040573 1.233088 -1.245255
v 0.048459 1.233088 -1.256108
v 0.061217 1.233088 -1.251963
v 0.055511 1.244500 -1.234402
v 0.042753 1.244500 -1.238548
v 0.042753 1.244500 -1.251963
v 0.055511 1.244500 -1.256108
v 0.063397 1.244500 -1.245255
v 0.051985 1.251553 -1.245255
v 0.049912 1.227941 -1.238876
v 0.057411 1.227941 -1.241313
v 0.055339 1.232086 -1.234933
v 0.062838 1.232086 -1.245255
v 0.057411 1.227941 -1.249198
v 0.045277 1.227941 -1.245255
v 0.043205 1.232086 -1.238876
v 0.049912 1.227941 -1.251634
v 0.043205 1.232086 -1.251634
v 0.055339 1.232086 -1.255577
v 0.064119 1.238794 -1.241313
v 0.064119 1.238794 -1.249198
v 0.051985 1.238794 -1.232497
v 0.059484 1.238794 -1.234933
v 0.039851 1.238794 -1.241313
v 0.044486 1.238794 -1.234933
v 0.044486 1.238794 -1.255577
v 0.039851 1.238794 -1.249198
v 0.059484 1.238794 -1.255577
v 0.051985 1.238794 -1.258014
v 0.060765 1.245502 -1.238876
v 0.048631 1.245502 -1.234933
v 0.041132 1.245502 -1.245255
v 0.048631 1.245502 -1.255577
v 0.060765 1.245502 -1.251634
v 0.054058 1.249647 -1.238876
v 0.058692 1.249647 -1.245255
v 0.046558 1.249647 -1.241313
v 0.046558 1.249647 -1.249198
v 0.054058 1.249647 -1.251634
v -0.012127 0.996297 -1.256580
v -0.012127 1.559775 -1.256580
v -0.012127 0.996297 -1.275767
v -0.012127 1.559775 -1.275767
v -0.291705 0.996297 -1.256580
v -0.291705 1.559775 -1.256580
v -0.291705 0.996297 -1.275767
v -0.291705 1.559775 -1.275767
v -0.051985 1.226036 -1.245255
v -0.061217 1.233088 -1.238548
v -0.048459 1.233088 -1.234402
v -0.040573 1.233088 -1.245255
v -0.048459 1.233088 -1.256108
v -0.061217 1.233088 -1.251963
v -0.055511 1.244500 -1.234402
v -0.042753 1.244500 -1.238548
v -0.042753 1.244500 -1.251963
v -0.055511 1.244500 -1.256108
v -0.063397 1.244500 -1.245255
v -0.051985 1.251553 -1.245255
v -0.049912 1.227941 -1.238876
v -0.057411 1.227941 -1.241313
v -0.055339 1.232086 -1.234933
v -0.062838 1.232086 -1.245255
v -0.057411 1.227941 -1.249198
v -0.045277 1.227941 -1.245255
v -0.043205 1.232086 -1.238876
v -0.049912 1.227941 -1.251634
v -0.043205 1.232086 -1.251634
v -0.055339 1.232086 -1.255577
v -0.064119 1.238794 -1.241313
v -0.064119 1.238794 -1.249198
v -0.051985 1.238794 -1.232497
v -0.059484 1.238794 -1.234933
v -0.039851 1.238794 -1.241313
v -0.044486 1.238794 -1.234933
v -0.044486 1.238794 -1.255577
v -0.039851 1.238794 -1.249198
v -0.059484 1.238794 -1.255577
v -0.051985 1.238794 -1.258014
v -0.060765 1.245502 -1.238876
v -0.048631 1.245502 -1.234933
v -0.041132 1.245502 -1.245255
v -0.048631 1.245502 -1.255577
v -0.060765 1.245502 -1.251634
v -0.054058 1.249647 -1.238876
v -0.058692 1.249647 -1.245255
v -0.046558 1.249647 -1.241313
v -0.046558 1.249647 -1.249198
v -0.054058 1.249647 -1.251634
vn -1.0000 -0.0000 -0.0000
vn -0.0000 -0.0000 -1.0000
vn 1.0000 -0.0000 -0.0000
vn -0.0000 -0.0000 1.0000
vn -0.0000 -1.0000 -0.0000
vn -0.0000 1.0000 -0.0000
vn 0.1024 -0.9435 0.3151
vn 0.7002 -0.6617 0.2680
vn -0.2680 -0.9435 0.1947
vn -0.2680 -0.9435 -0.1947
vn 0.1024 -0.9435 -0.3151
vn 0.9050 -0.3304 0.2680
vn 0.0247 -0.3304 0.9435
vn -0.8897 -0.3304 0.3151
vn -0.5746 -0.3304 -0.7488
vn 0.5346 -0.3304 -0.7779
vn 0.8026 -0.1256 0.5831
vn -0.3066 -0.1256 0.9435
vn -0.9921 -0.1256 -0.0000
vn -0.3066 -0.1256 -0.9435
vn 0.8026 -0.1256 -0.5831
vn 0.4089 0.6617 0.6284
vn -0.4713 0.6617 0.5831
vn -0.7002 0.6617 -0.2680
vn 0.0385 0.6617 -0.7488
vn 0.7240 0.6617 -0.1947
vn 0.2680 0.9435 -0.1947
vn 0.4911 0.7947 -0.3568
vn 0.4089 0.6617 -0.6284
vn -0.1024 0.9435 -0.3151
vn -0.1876 0.7947 -0.5773
vn -0.4713 0.6617 -0.5831
vn -0.3313 0.9435 -0.0000
vn -0.6071 0.7947 -0.0000
vn -0.7002 0.6617 0.2680
vn -0.1024 0.9435 0.3151
vn -0.1876 0.7947 0.5773
vn 0.0385 0.6617 0.7488
vn 0.2680 0.9435 0.1947
vn 0.4911 0.7947 0.3568
vn 0.7240 0.6617 0.1947
vn 0.8897 0.3304 -0.3151
vn 0.7947 0.1876 -0.5773
vn 0.5746 0.3304 -0.7488
vn -0.0247 0.3304 -0.9435
vn -0.3035 0.1876 -0.9342
vn -0.5346 0.3304 -0.7779
vn -0.9050 0.3304 -0.2680
vn -0.9822 0.1876 -0.0000
vn -0.9050 0.3304 0.2680
vn -0.5346 0.3304 0.7779
vn -0.3035 0.1876 0.9342
vn -0.0247 0.3304 0.9435
vn 0.5746 0.3304 0.7488
vn 0.7947 0.1876 0.5773
vn 0.8897 0.3304 0.3151
vn 0.3066 0.1256 -0.9435
vn 0.3035 -0.1876 -0.9342
vn 0.0247 -0.3304 -0.9435
vn -0.8026 0.1256 -0.5831
vn -0.7947 -0.1876 -0.5773
vn -0.8897 -0.3304 -0.3151
vn -0.8026 0.1256 0.5831
vn -0.7947 -0.1876 0.5773
vn -0.5746 -0.3304 0.7488
vn 0.3066 0.1256 0.9435
vn 0.3035 -0.1876 0.9342
vn 0.5346 -0.3304 0.7779
vn 0.9921 0.1256 -0.0000
vn 0.9822 -0.1876 -0.0000
vn 0.9050 -0.3304 -0.2680
vn 0.4713 -0.6617 -0.5831
vn 0.1876 -0.7947 -0.5773
vn -0.0385 -0.6617 -0.7488
vn -0.4089 -0.6617 -0.6284
vn -0.4911 -0.7947 -0.3568
vn -0.7240 -0.6617 -0.1947
vn -0.7240 -0.6617 0.1947
vn -0.4911 -0.7947 0.3568
vn -0.4089 -0.6617 0.6284
vn 0.7002 -0.6617 -0.2680
vn 0.6071 -0.7947 -0.0000
vn 0.3313 -0.9435 -0.0000
vn -0.0385 -0.6617 0.7488
vn 0.1876 -0.7947 0.5773
vn 0.4713 -0.6617 0.5831
vn -0.1024 -0.9435 0.3151
vn -0.7002 -0.6617 0.2680
vn 0.2680 -0.9435 0.1947
vn 0.2680 -0.9435 -0.1947
vn -0.1024 -0.9435 -0.3151
vn -0.9050 -0.3304 0.2680
vn -0.0247 -0.3304 0.9435
vn 0.8897 -0.3304 0.3151
vn 0.5746 -0.3304 -0.7488
vn -0.5346 -0.3304 -0.7779
vn -0.8026 -0.1256 0.5831
vn 0.3066 -0.1256 0.9435
vn 0.9921 -0.1256 -0.0000
vn 0.3066 -0.1256 -0.9435
vn -0.8026 -0.1256 -0.5831
vn -0.4089 0.6617 0.6284
vn 0.4713 0.6617 0.5831
vn 0.7002 0.6617 -0.2680
vn -0.0385 0.6617 -0.7488
vn -0.7240 0.6617 -0.1947
vn -0.2680 0.9435 -0.1947
vn -0.4911 0.7947 -0.3568
vn -0.4089 0.6617 -0.6284
vn 0.1024 0.9435 -0.3151
vn 0.1876 0.7947 -0.5773
vn 0.4713 0.6617 -0.5831
vn 0.3313 0.9435 -0.0000
vn 0.6071 0.7947 -0.0000
vn 0.7002 0.6617 0.2680
vn 0.1024 0.9435 0.3151
vn 0.1876 0.7947 0.5773
vn -0.0385 0.6617 0.7488
vn -0.2680 0.9435 0.1947
vn -0.4911 0.7947 0.3568
vn -0.7240 0.6617 0.1947
vn -0.8897 0.3304 -0.3151
vn -0.7947 0.1876 -0.5773
vn -0.5746 0.3304 -0.7488
vn 0.0247 0.3304 -0.9435
vn 0.3035 0.1876 -0.9342
vn 0.5346 0.3304 -0.7779
vn 0.9050 0.3304 -0.2680
vn 0.9822 0.1876 -0.0000
vn 0.9050 0.3304 0.2680
vn 0.5346 0.3304 0.7779
vn 0.3035 0.1876 0.9342
vn 0.0247 0.3304 0.9435
vn -0.5746 0.3304 0.7488
vn -0.7947 0.1876 0.5773
vn -0.8897 0.3304 0.3151
vn -0.3066 0.1256 -0.9435
vn -0.3035 -0.1876 -0.9342
vn -0.0247 -0.3304 -0.9435
vn 0.8026 0.1256 -0.5831
vn 0.7947 -0.1876 -0.5773
vn 0.8897 -0.3304 -0.3151
vn 0.8026 0.1256 0.5831
vn 0.7947 -0.1876 0.5773
vn 0.5746 -0.3304 0.7488
vn -0.3066 0.1256 0.9435
vn -0.3035 -0.1876 0.9342
vn -0.5346 -0.3304 0.7779
vn -0.9921 0.1256 -0.0000
vn -0.9822 -0.1876 -0.0000
vn -0.9050 -0.3304 -0.2680
vn -0.4713 -0.6617 -0.5831
vn -0.1876 -0.7947 -0.5773
vn 0.0385 -0.6617 -0.7488
vn 0.4089 -0.6617 -0.6284
vn 0.4911 -0.7947 -0.3568
vn 0.7240 -0.6617 -0.1947
vn 0.7240 -0.6617 0.1947
vn 0.4911 -0.7947 0.3568
vn 0.4089 -0.6617 0.6284
vn -0.7002 -0.6617 -0.2680
vn -0.6071 -0.7947 -0.0000
vn -0.3313 -0.9435 -0.0000
vn 0.0385 -0.6617 0.7488
vn -0.1876 -0.7947 0.5773
vn -0.4713 -0.6617 0.5831
vt 0.375000 0.000000
vt 0.375000 1.000000
vt 0.125000 0.750000
vt 0.625000 0.000000
vt 0.625000 1.000000
vt 0.875000 0.750000
vt 0.125000 0.500000
vt 0.375000 0.250000
vt 0.625000 0.250000
vt 0.875000 0.500000
vt 0.375000 0.750000
vt 0.625000 0.750000
vt 0.375000 0.500000
vt 0.625000 0.500000
vt 0.818181 0.000000
vt 0.090909 0.000000
vt 0.272727 0.000000
vt 0.454545 0.000000
vt 0.636363 0.000000
vt 0.727272 0.157461
vt 0.000000 0.157461
vt 0.909090 0.157461
vt 0.181818 0.157461
vt 0.363636 0.157461
vt 0.545454 0.157461
vt 0.818181 0.314921
vt 1.000000 0.314921
vt 0.090909 0.314921
vt 0.272727 0.314921
vt 0.454545 0.314921
vt 0.636363 0.314921
vt 0.545454 0.472382
vt 0.363636 0.472382
vt 0.181818 0.472382
vt 0.909090 0.472382
vt 0.727272 0.472382
vt 0.045454 0.078731
vt 0.863635 0.078731
vt 0.681818 0.078731
vt 0.772726 0.078731
vt 0.818181 0.157461
vt 0.636363 0.157461
vt 0.500000 0.078731
vt 0.590909 0.078731
vt 0.227273 0.078731
vt 0.136363 0.078731
vt 0.090909 0.157461
vt 0.409090 0.078731
vt 0.318182 0.078731
vt 0.272727 0.157461
vt 0.454545 0.157461
vt 0.681818 0.236191
vt 0.590909 0.236191
vt 0.863635 0.236191
vt 0.772726 0.236191
vt 0.136363 0.236191
vt 0.954545 0.236191
vt 0.045454 0.236191
vt 0.318182 0.236191
vt 0.227273 0.236191
vt 0.500000 0.236191
vt 0.409090 0.236191
vt 0.727272 0.314921
vt 0.909091 0.314921
vt 0.181818 0.314921
vt 0.363636 0.314921
vt 0.545454 0.314921
vt 0.863635 0.393651
vt 0.772726 0.393651
vt 0.590909 0.393651
vt 0.681818 0.393651
vt 0.136363 0.393651
vt 0.954545 0.393651
vt 0.318182 0.393651
vt 0.227273 0.393651
vt 0.500000 0.393651
vt 0.409090 0.393651
vt 0.375000 0.000000
vt 0.375000 1.000000
vt 0.125000 0.750000
vt 0.625000 0.000000
vt 0.625000 1.000000
vt 0.875000 0.750000
vt 0.125000 0.500000
vt 0.375000 0.250000
vt 0.625000 0.250000
vt 0.875000 0.500000
vt 0.375000 0.750000
vt 0.625000 0.750000
vt 0.375000 0.500000
vt 0.625000 0.500000
vt 0.818181 0.000000
vt 0.090909 0.000000
vt 0.272727 0.000000
vt 0.454545 0.000000
vt 0.636363 0.000000
vt 0.727272 0.157461
vt 0.000000 0.157461
vt 0.909090 0.157461
vt 0.181818 0.157461
vt 0.363636 0.157461
vt 0.545454 0.157461
vt 0.818181 0.314921
vt 1.000000 0.314921
vt 0.090909 0.314921
vt 0.272727 0.314921
vt 0.454545 0.314921
vt 0.636363 0.314921
vt 0.545454 0.472382
vt 0.363636 0.472382
vt 0.181818 0.472382
vt 0.909090 0.472382
vt 0.727272 0.472382
vt 0.045454 0.078731
vt 0.863635 0.078731
vt 0.681818 0.078731
vt 0.772726 0.078731
vt 0.818181 0.157461
vt 0.636363 0.157461
vt 0.500000 0.078731
vt 0.590909 0.078731
vt 0.227273 0.078731
vt 0.136363 0.078731
vt 0.090909 0.157461
vt 0.409090 0.078731
vt 0.318182 0.078731
vt 0.272727 0.157461
vt 0.454545 0.157461
vt 0.681818 0.236191
vt 0.590909 0.236191
vt 0.863635 0.236191
vt 0.772726 0.236191
vt 0.136363 0.236191
vt 0.954545 0.236191
vt 0.045454 0.236191
vt 0.318182 0.236191
vt 0.227273 0.236191
vt 0.500000 0.236191
vt 0.409090 0.236191
vt 0.727272 0.314921
vt 0.909091 0.314921
vt 0.181818 0.314921
vt 0.363636 0.314921
vt 0.545454 0.314921
vt 0.863635 0.393651
vt 0.772726 0.393651
vt 0.590909 0.393651
vt 0.681818 0.393651
vt 0.136363 0.393651
vt 0.954545 0.393651
vt 0.318182 0.393651
vt 0.227273 0.393651
vt 0.500000 0.393651
vt 0.409090 0.393651
s 0
f 2/4/1 3/8/1 1/1/1
f 4/9/2 7/13/2 3/8/2
f 8/14/3 5/11/3 7/13/3
f 6/12/4 1/2/4 5/11/4
f 7/13/5 1/3/5 3/7/5
f 4/10/6 6/12/6 8/14/6
f 9/15/7 22/40/7 21/38/7
f 10/20/8 22/39/8 24/42/8
f 9/16/9 21/37/9 26/46/9
f 9/17/10 26/45/10 28/49/10
f 9/18/11 28/48/11 25/43/11
f 10/20/12 24/42/12 31/52/12
f 11/22/13 23/41/13 33/54/13
f 12/23/14 27/47/14 35/56/14
f 13/24/15 29/50/15 37/59/15
f 14/25/16 30/51/16 39/61/16
f 10/20/17 31/52/17 34/55/17
f 11/22/18 33/54/18 36/57/18
f 12/23/19 35/56/19 38/60/19
f 13/24/20 37/59/20 40/62/20
f 14/25/21 39/61/21 32/53/21
f 15/26/22 41/63/22 46/69/22
f 16/27/23 42/64/23 48/73/23
f 17/29/24 43/65/24 49/75/24
f 18/30/25 44/66/25 50/77/25
f 19/31/26 45/67/26 47/70/26
f 47/70/27 50/76/27 20/32/27
f 47/70/28 45/67/28 50/76/28
f 45/67/29 18/30/29 50/76/29
f 50/77/30 49/74/30 20/33/30
f 50/77/31 44/66/31 49/74/31
f 44/66/32 17/29/32 49/74/32
f 49/75/33 48/72/33 20/34/33
f 49/75/34 43/65/34 48/72/34
f 43/65/35 16/28/35 48/72/35
f 48/73/36 46/68/36 20/35/36
f 48/73/37 42/64/37 46/68/37
f 42/64/38 15/26/38 46/68/38
f 46/69/39 47/71/39 20/36/39
f 46/69/40 41/63/40 47/71/40
f 41/63/41 19/31/41 47/71/41
f 32/53/42 45/67/42 19/31/42
f 32/53/43 39/61/43 45/67/43
f 39/61/44 18/30/44 45/67/44
f 40/62/45 44/66/45 18/30/45
f 40/62/46 37/59/46 44/66/46
f 37/59/47 17/29/47 44/66/47
f 38/60/48 43/65/48 17/29/48
f 38/60/49 35/56/49 43/65/49
f 35/56/50 16/28/50 43/65/50
f 36/57/51 42/64/51 16/27/51
f 36/57/52 33/54/52 42/64/52
f 33/54/53 15/26/53 42/64/53
f 34/55/54 41/63/54 15/26/54
f 34/55/55 31/52/55 41/63/55
f 31/52/56 19/31/56 41/63/56
f 39/61/57 40/62/57 18/30/57
f 39/61/58 30/51/58 40/62/58
f 30/51/59 13/24/59 40/62/59
f 37/59/60 38/60/60 17/29/60
f 37/59/61 29/50/61 38/60/61
f 29/50/62 12/23/62 38/60/62
f 35/56/63 36/58/63 16/28/63
f 35/56/64 27/47/64 36/58/64
f 27/47/65 11/21/65 36/58/65
f 33/54/66 34/55/66 15/26/66
f 33/54/67 23/41/67 34/55/67
f 23/41/68 10/20/68 34/55/68
f 31/52/69 32/53/69 19/31/69
f 31/52/70 24/42/70 32/53/70
f 24/42/71 14/25/71 32/53/71
f 25/43/72 30/51/72 14/25/72
f 25/43/73 28/48/73 30/51/73
f 28/48/74 13/24/74 30/51/74
f 28/49/75 29/50/75 13/24/75
f 28/49/76 26/45/76 29/50/76
f 26/45/77 12/23/77 29/50/77
f 26/46/78 27/47/78 12/23/78
f 26/46/79 21/37/79 27/47/79
f 21/37/80 11/21/80 27/47/80
f 24/42/81 25/44/81 14/25/81
f 24/42/82 22/39/82 25/44/82
f 22/39/83 9/19/83 25/44/83
f 21/38/84 23/41/84 11/22/84
f 21/38/85 22/40/85 23/41/85
f 22/40/86 10/20/86 23/41/86
f 53/85/3 52/81/3 51/78/3
f 57/90/2 54/86/2 53/85/2
f 55/88/1 58/91/1 57/90/1
f 51/79/4 56/89/4 55/88/4
f 51/80/5 57/90/5 53/84/5
f 56/89/6 54/87/6 58/91/6
f 59/92/87 71/115/87 72/117/87
f 60/97/88 74/119/88 72/116/88
f 59/93/89 76/123/89 71/114/89
f 59/94/90 78/126/90 76/122/90
f 59/95/91 75/120/91 78/125/91
f 60/97/92 81/129/92 74/119/92
f 61/99/93 83/131/93 73/118/93
f 62/100/94 85/133/94 77/124/94
f 63/101/95 87/136/95 79/127/95
f 64/102/96 89/138/96 80/128/96
f 60/97/97 84/132/97 81/129/97
f 61/99/98 86/134/98 83/131/98
f 62/100/99 88/137/99 85/133/99
f 63/101/100 90/139/100 87/136/100
f 64/102/101 82/130/101 89/138/101
f 65/103/102 96/146/102 91/140/102
f 66/104/103 98/150/103 92/141/103
f 67/106/104 99/152/104 93/142/104
f 68/107/105 100/154/105 94/143/105
f 69/108/106 97/147/106 95/144/106
f 97/147/107 70/109/107 100/153/107
f 97/147/108 100/153/108 95/144/108
f 95/144/109 100/153/109 68/107/109
f 100/154/110 70/110/110 99/151/110
f 100/154/111 99/151/111 94/143/111
f 94/143/112 99/151/112 67/106/112
f 99/152/113 70/111/113 98/149/113
f 99/152/114 98/149/114 93/142/114
f 93/142/115 98/149/115 66/105/115
f 98/150/116 70/112/116 96/145/116
f 98/150/117 96/145/117 92/141/117
f 92/141/118 96/145/118 65/103/118
f 96/146/119 70/113/119 97/148/119
f 96/146/120 97/148/120 91/140/120
f 91/140/121 97/148/121 69/108/121
f 82/130/122 69/108/122 95/144/122
f 82/130/123 95/144/123 89/138/123
f 89/138/124 95/144/124 68/107/124
f 90/139/125 68/107/125 94/143/125
f 90/139/126 94/143/126 87/136/126
f 87/136/127 94/143/127 67/106/127
f 88/137/128 67/106/128 93/142/128
f 88/137/129 93/142/129 85/133/129
f 85/133/130 93/142/130 66/105/130
f 86/134/131 66/104/131 92/141/131
f 86/134/132 92/141/132 83/131/132
f 83/131/133 92/141/133 65/103/133
f 84/132/134 65/103/134 91/140/134
f 84/132/135 91/140/135 81/129/135
f 81/129/136 91/140/136 69/108/136
f 89/138/137 68/107/137 90/139/137
f 89/138/138 90/139/138 80/128/138
f 80/128/139 90/139/139 63/101/139
f 87/136/140 67/106/140 88/137/140
f 87/136/141 88/137/141 79/127/141
f 79/127/142 88/137/142 62/100/142
f 85/133/143 66/105/143 86/135/143
f 85/133/144 86/135/144 77/124/144
f 77/124/145 86/135/145 61/98/145
f 83/131/146 65/103/146 84/132/146
f 83/131/147 84/132/147 73/118/147
f 73/118/148 84/132/148 60/97/148
f 81/129/149 69/108/149 82/130/149
f 81/129/150 82/130/150 74/119/150
f 74/119/151 82/130/151 64/102/151
f 75/120/152 64/102/152 80/128/152
f 75/120/153 80/128/153 78/125/153
f 78/125/154 80/128/154 63/101/154
f 78/126/155 63/101/155 79/127/155
f 78/126/156 79/127/156 76/122/156
f 76/122/157 79/127/157 62/100/157
f 76/123/158 62/100/158 77/124/158
f 76/123/159 77/124/159 71/114/159
f 71/114/160 77/124/160 61/98/160
f 74/119/161 64/102/161 75/121/161
f 74/119/162 75/121/162 72/116/162
f 72/116/163 75/121/163 59/96/163
f 71/115/164 61/99/164 73/118/164
f 71/115/165 73/118/165 72/117/165
f 72/117/166 73/118/166 60/97/166
f 2/4/1 4/9/1 3/8/1
f 4/9/2 8/14/2 7/13/2
f 8/14/3 6/12/3 5/11/3
f 6/12/4 2/5/4 1/2/4
f 7/13/5 5/11/5 1/3/5
f 4/10/6 2/6/6 6/12/6
f 53/85/3 54/86/3 52/81/3
f 57/90/2 58/91/2 54/86/2
f 55/88/1 56/89/1 58/91/1
f 51/79/4 52/82/4 56/89/4
f 51/80/5 55/88/5 57/90/5
f 56/89/6 52/83/6 54/87/6
