# Blender 3.5.1
# www.blender.org
o standsetir
v -0.065715 1.860445 -1.461883
v -0.031208 2.271724 -1.523219
v -0.065715 1.860445 -1.593313
v -0.031208 2.271724 -1.558805
v 0.065715 1.860445 -1.461883
v 0.031208 2.271724 -1.523219
v 0.065715 1.860445 -1.593313
v 0.031208 2.271724 -1.558805
v -0.031208 2.212996 -1.496390
v -0.031208 2.212996 -1.558805
v 0.031208 2.212996 -1.558805
v 0.031208 2.212996 -1.496390
v -0.031208 2.271724 -1.608019
v 0.031208 2.271724 -1.608019
v -0.031208 2.212996 -1.608019
v 0.031208 2.212996 -1.608019
vn -1.0000 -0.0000 -0.0000
vn -0.0000 -1.0000 -0.0000
vn 1.0000 -0.0000 -0.0000
vn -0.0000 0.4155 0.9096
vn -0.0000 1.0000 -0.0000
vn -0.0000 0.0974 0.9952
vn 0.9952 0.0974 -0.0000
vn -0.0000 0.0974 -0.9952
vn -0.9952 0.0974 -0.0000
vn -0.0000 -0.0000 -1.0000
vt 0.125000 0.750000
vt 0.375000 1.000000
vt 0.375000 0.000000
vt 0.625000 0.000000
vt 0.625000 1.000000
vt 0.875000 0.750000
vt 0.125000 0.500000
vt 0.375000 0.250000
vt 0.875000 0.500000
vt 0.625000 0.250000
vt 0.375000 0.750000
vt 0.625000 0.750000
vt 0.375000 0.500000
vt 0.625000 0.500000
vt 0.555329 1.000000
vt 0.555329 0.000000
vt 0.555329 0.250000
vt 0.555329 0.500000
vt 0.555329 0.750000
vt 0.875000 0.500000
vt 0.625000 0.250000
vt 0.625000 0.500000
vt 0.555329 0.250000
vt 0.555329 0.500000
s 0
f 2/4/1 10/17/1 9/16/1
f 10/17/2 16/24/2 11/18/2
f 11/18/3 6/12/3 12/19/3
f 6/12/4 9/15/4 12/19/4
f 7/13/2 1/1/2 3/7/2
f 4/9/5 6/12/5 8/14/5
f 12/19/6 1/2/6 5/11/6
f 11/18/7 5/11/7 7/13/7
f 10/17/8 7/13/8 3/8/8
f 1/3/9 10/17/9 3/8/9
f 13/21/10 16/24/10 15/23/10
f 8/14/5 13/20/5 4/9/5
f 11/18/3 14/22/3 8/14/3
f 4/10/1 15/23/1 10/17/1
f 2/4/1 4/10/1 10/17/1
f 10/17/2 15/23/2 16/24/2
f 11/18/3 8/14/3 6/12/3
f 6/12/4 2/5/4 9/15/4
f 7/13/2 5/11/2 1/1/2
f 4/9/5 2/6/5 6/12/5
f 12/19/6 9/15/6 1/2/6
f 11/18/7 12/19/7 5/11/7
f 10/17/8 11/18/8 7/13/8
f 1/3/9 9/16/9 10/17/9
f 13/21/10 14/22/10 16/24/10
f 8/14/5 14/22/5 13/20/5
f 11/18/3 16/24/3 14/22/3
f 4/10/1 13/21/1 15/23/1
