# Blender 3.5.1
# www.blender.org
o Cylinder.030
v -0.000000 7.155094 -0.407479
v -0.000000 7.109014 -0.452069
v 0.079495 7.155094 -0.399650
v 0.088194 7.109014 -0.443383
v 0.155936 7.155094 -0.376462
v 0.172999 7.109014 -0.417658
v 0.226383 7.155094 -0.338807
v 0.251156 7.109014 -0.375882
v 0.288131 7.155094 -0.288131
v 0.319661 7.109014 -0.319661
v 0.338807 7.155094 -0.226383
v 0.375882 7.109014 -0.251156
v 0.376462 7.155094 -0.155936
v 0.417657 7.109014 -0.172999
v 0.399650 7.155094 -0.079495
v 0.443383 7.109014 -0.088194
v 0.407479 7.155094 -0.000000
v 0.452069 7.109014 -0.000000
v 0.399650 7.155094 0.079495
v 0.443383 7.109014 0.088194
v 0.376462 7.155094 0.155935
v 0.417658 7.109014 0.172999
v 0.338807 7.155094 0.226383
v 0.375882 7.109014 0.251156
v 0.288131 7.155094 0.288131
v 0.319661 7.109014 0.319661
v 0.226383 7.155094 0.338807
v 0.251156 7.109014 0.375882
v 0.155935 7.155094 0.376462
v 0.172999 7.109014 0.417658
v 0.079495 7.155094 0.399650
v 0.088194 7.109014 0.443383
v -0.000000 7.155094 0.407479
v -0.000000 7.109014 0.452069
v -0.079495 7.155094 0.399650
v -0.088194 7.109014 0.443383
v -0.155936 7.155094 0.376462
v -0.173000 7.109014 0.417657
v -0.226383 7.155094 0.338806
v -0.251156 7.109014 0.375882
v -0.288131 7.155094 0.288131
v -0.319661 7.109014 0.319661
v -0.338807 7.155094 0.226383
v -0.375882 7.109014 0.251156
v -0.376462 7.155094 0.155935
v -0.417658 7.109014 0.172999
v -0.399650 7.155094 0.079495
v -0.443383 7.109014 0.088194
v -0.407479 7.155094 -0.000000
v -0.452069 7.109014 -0.000000
v -0.399649 7.155094 -0.079496
v -0.443383 7.109014 -0.088195
v -0.376461 7.155094 -0.155936
v -0.417657 7.109014 -0.173000
v -0.338806 7.155094 -0.226384
v -0.375882 7.109014 -0.251157
v -0.288131 7.155094 -0.288132
v -0.319661 7.109014 -0.319662
v -0.226383 7.155094 -0.338807
v -0.251156 7.109014 -0.375882
v -0.155935 7.155094 -0.376462
v -0.172999 7.109014 -0.417658
v -0.079495 7.155094 -0.399650
v -0.088194 7.109014 -0.443383
v -0.000000 7.155094 -0.452069
v 0.088194 7.155094 -0.443383
v 0.172999 7.155094 -0.417658
v 0.251156 7.155094 -0.375882
v 0.319661 7.155094 -0.319661
v 0.375882 7.155094 -0.251156
v 0.417657 7.155094 -0.172999
v 0.443383 7.155094 -0.088194
v 0.452069 7.155094 -0.000000
v 0.443383 7.155094 0.088194
v 0.417658 7.155094 0.172999
v 0.375882 7.155094 0.251156
v 0.319661 7.155094 0.319661
v 0.251156 7.155094 0.375882
v 0.172999 7.155094 0.417658
v 0.088194 7.155094 0.443383
v -0.000000 7.155094 0.452069
v -0.088194 7.155094 0.443383
v -0.173000 7.155094 0.417657
v -0.251156 7.155094 0.375882
v -0.319661 7.155094 0.319661
v -0.375882 7.155094 0.251156
v -0.417658 7.155094 0.172999
v -0.443383 7.155094 0.088194
v -0.452069 7.155094 -0.000000
v -0.443383 7.155094 -0.088195
v -0.417657 7.155094 -0.173000
v -0.375882 7.155094 -0.251157
v -0.319661 7.155094 -0.319662
v -0.251156 7.155094 -0.375882
v -0.172999 7.155094 -0.417658
v -0.088194 7.155094 -0.443383
v -0.000000 7.109561 -0.407479
v 0.079495 7.109561 -0.399650
v 0.155936 7.109561 -0.376462
v 0.226383 7.109561 -0.338807
v 0.288131 7.109561 -0.288131
v 0.338807 7.109561 -0.226383
v 0.376462 7.109561 -0.155936
v 0.399650 7.109561 -0.079495
v 0.407479 7.109561 -0.000000
v 0.399650 7.109561 0.079495
v 0.376462 7.109561 0.155935
v 0.338807 7.109561 0.226383
v 0.288131 7.109561 0.288131
v 0.226383 7.109561 0.338807
v 0.155935 7.109561 0.376462
v 0.079495 7.109561 0.399650
v -0.000000 7.109561 0.407479
v -0.079495 7.109561 0.399650
v -0.155936 7.109561 0.376462
v -0.226383 7.109561 0.338806
v -0.288131 7.109561 0.288131
v -0.338807 7.109561 0.226383
v -0.376462 7.109561 0.155935
v -0.399650 7.109561 0.079495
v -0.407479 7.109561 -0.000000
v -0.399649 7.109561 -0.079496
v -0.376461 7.109561 -0.155936
v -0.338806 7.109561 -0.226384
v -0.288131 7.109561 -0.288132
v -0.226383 7.109561 -0.338807
v -0.155935 7.109561 -0.376462
v -0.079495 7.109561 -0.399650
vn 0.0980 -0.0000 -0.9952
vn 0.2903 -0.0000 -0.9569
vn 0.4714 -0.0000 -0.8819
vn 0.6344 -0.0000 -0.7730
vn 0.7730 -0.0000 -0.6344
vn 0.8819 -0.0000 -0.4714
vn 0.9569 -0.0000 -0.2903
vn 0.9952 -0.0000 -0.0980
vn 0.9952 -0.0000 0.0980
vn 0.9569 -0.0000 0.2903
vn 0.8819 -0.0000 0.4714
vn 0.7730 -0.0000 0.6344
vn 0.6344 -0.0000 0.7730
vn 0.4714 -0.0000 0.8819
vn 0.2903 -0.0000 0.9569
vn 0.0980 -0.0000 0.9952
vn -0.0980 -0.0000 0.9952
vn -0.2903 -0.0000 0.9569
vn -0.4714 -0.0000 0.8819
vn -0.6344 -0.0000 0.7730
vn -0.7730 -0.0000 0.6344
vn -0.8819 -0.0000 0.4714
vn -0.9569 -0.0000 0.2903
vn -0.9952 -0.0000 0.0980
vn -0.9952 -0.0000 -0.0980
vn -0.9569 -0.0000 -0.2903
vn -0.8819 -0.0000 -0.4714
vn -0.7730 -0.0000 -0.6344
vn -0.6344 -0.0000 -0.7730
vn -0.4714 -0.0000 -0.8819
vn -0.0036 -0.9999 -0.0118
vn -0.2903 -0.0000 -0.9569
vn -0.0980 -0.0000 -0.9952
vn -0.0000 1.0000 -0.0000
vn -0.0012 -0.9999 -0.0123
vn 0.0012 -0.9999 -0.0123
vn -0.0058 -0.9999 -0.0109
vn -0.0078 -0.9999 -0.0095
vn -0.0095 -0.9999 -0.0078
vn -0.0109 -0.9999 -0.0058
vn -0.0118 -0.9999 -0.0036
vn -0.0123 -0.9999 -0.0012
vn -0.0123 -0.9999 0.0012
vn -0.0118 -0.9999 0.0036
vn -0.0109 -0.9999 0.0058
vn -0.0095 -0.9999 0.0078
vn -0.0078 -0.9999 0.0095
vn -0.0058 -0.9999 0.0109
vn -0.0036 -0.9999 0.0118
vn -0.0012 -0.9999 0.0123
vn 0.0012 -0.9999 0.0123
vn 0.0036 -0.9999 0.0118
vn 0.0058 -0.9999 0.0109
vn 0.0078 -0.9999 0.0095
vn 0.0095 -0.9999 0.0078
vn 0.0109 -0.9999 0.0058
vn 0.0118 -0.9999 0.0036
vn 0.0123 -0.9999 0.0012
vn 0.0123 -0.9999 -0.0012
vn 0.0118 -0.9999 -0.0036
vn 0.0109 -0.9999 -0.0058
vn 0.0095 -0.9999 -0.0078
vn 0.0078 -0.9999 -0.0095
vn 0.0058 -0.9999 -0.0109
vn 0.0036 -0.9999 -0.0118
vt 0.750000 0.466328
vt 0.000000 1.000000
vt 1.000000 1.000000
vt 0.792204 0.462171
vt 0.968750 1.000000
vt 0.832785 0.449861
vt 0.937500 1.000000
vt 0.870185 0.429870
vt 0.906250 1.000000
vt 0.902967 0.402967
vt 0.875000 1.000000
vt 0.929870 0.370185
vt 0.843750 1.000000
vt 0.949860 0.332785
vt 0.812500 1.000000
vt 0.962171 0.292203
vt 0.781250 1.000000
vt 0.966327 0.250000
vt 0.750000 1.000000
vt 0.962171 0.207797
vt 0.718750 1.000000
vt 0.949861 0.167215
vt 0.687500 1.000000
vt 0.929870 0.129815
vt 0.656250 1.000000
vt 0.902967 0.097033
vt 0.625000 1.000000
vt 0.870185 0.070130
vt 0.593750 1.000000
vt 0.832785 0.050140
vt 0.562500 1.000000
vt 0.792203 0.037829
vt 0.531250 1.000000
vt 0.750000 0.033673
vt 0.500000 1.000000
vt 0.707797 0.037829
vt 0.468750 1.000000
vt 0.667215 0.050140
vt 0.437500 1.000000
vt 0.629815 0.070130
vt 0.406250 1.000000
vt 0.597033 0.097033
vt 0.375000 1.000000
vt 0.570130 0.129815
vt 0.343750 1.000000
vt 0.550139 0.167215
vt 0.312500 1.000000
vt 0.537829 0.207797
vt 0.281250 1.000000
vt 0.533673 0.250000
vt 0.250000 1.000000
vt 0.537829 0.292204
vt 0.218750 1.000000
vt 0.550140 0.332785
vt 0.187500 1.000000
vt 0.570130 0.370185
vt 0.156250 1.000000
vt 0.597034 0.402967
vt 0.125000 1.000000
vt 0.629815 0.429870
vt 0.093750 1.000000
vt 0.667215 0.449861
vt 0.062500 1.000000
vt 0.707797 0.462171
vt 0.031250 1.000000
vt 1.000000 0.500000
vt 0.000000 0.500000
vt 0.750000 0.490000
vt 0.968750 0.500000
vt 0.796822 0.485388
vt 0.937500 0.500000
vt 0.841844 0.471731
vt 0.906250 0.500000
vt 0.883337 0.449553
vt 0.875000 0.500000
vt 0.919706 0.419706
vt 0.843750 0.500000
vt 0.949553 0.383337
vt 0.812500 0.500000
vt 0.971731 0.341844
vt 0.781250 0.500000
vt 0.985388 0.296822
vt 0.750000 0.500000
vt 0.990000 0.250000
vt 0.718750 0.500000
vt 0.985388 0.203178
vt 0.687500 0.500000
vt 0.971731 0.158156
vt 0.656250 0.500000
vt 0.949553 0.116663
vt 0.625000 0.500000
vt 0.919706 0.080294
vt 0.593750 0.500000
vt 0.883337 0.050447
vt 0.562500 0.500000
vt 0.841844 0.028269
vt 0.531250 0.500000
vt 0.796822 0.014612
vt 0.500000 0.500000
vt 0.750000 0.010000
vt 0.468750 0.500000
vt 0.703178 0.014612
vt 0.437500 0.500000
vt 0.658156 0.028269
vt 0.406250 0.500000
vt 0.616663 0.050447
vt 0.375000 0.500000
vt 0.580294 0.080294
vt 0.343750 0.500000
vt 0.550447 0.116663
vt 0.312500 0.500000
vt 0.528269 0.158156
vt 0.281250 0.500000
vt 0.514611 0.203179
vt 0.250000 0.500000
vt 0.510000 0.250000
vt 0.218750 0.500000
vt 0.514612 0.296822
vt 0.187500 0.500000
vt 0.528269 0.341844
vt 0.156250 0.500000
vt 0.550447 0.383337
vt 0.125000 0.500000
vt 0.580295 0.419706
vt 0.093750 0.500000
vt 0.616663 0.449553
vt 0.062500 0.500000
vt 0.658156 0.471731
vt 0.031250 0.500000
vt 0.703179 0.485389
vt 0.750000 0.466328
vt 0.792204 0.462171
vt 0.832785 0.449861
vt 0.870185 0.429870
vt 0.902967 0.402967
vt 0.929870 0.370185
vt 0.949860 0.332785
vt 0.962171 0.292203
vt 0.966327 0.250000
vt 0.962171 0.207797
vt 0.949861 0.167215
vt 0.929870 0.129815
vt 0.902967 0.097033
vt 0.870185 0.070130
vt 0.832785 0.050140
vt 0.792203 0.037829
vt 0.750000 0.033673
vt 0.707797 0.037829
vt 0.667215 0.050140
vt 0.629815 0.070130
vt 0.597033 0.097033
vt 0.570130 0.129815
vt 0.550139 0.167215
vt 0.537829 0.207797
vt 0.533673 0.250000
vt 0.537829 0.292204
vt 0.550140 0.332785
vt 0.570130 0.370185
vt 0.597034 0.402967
vt 0.629815 0.429870
vt 0.667215 0.449861
vt 0.707797 0.462171
s 0
f 2/3/1 65/66/1 66/69/1
f 4/5/2 66/69/2 67/71/2
f 6/7/3 67/71/3 68/73/3
f 8/9/4 68/73/4 69/75/4
f 10/11/5 69/75/5 70/77/5
f 12/13/6 70/77/6 71/79/6
f 14/15/7 71/79/7 72/81/7
f 16/17/8 72/81/8 73/83/8
f 18/19/9 73/83/9 74/85/9
f 20/21/10 74/85/10 75/87/10
f 22/23/11 75/87/11 76/89/11
f 24/25/12 76/89/12 77/91/12
f 26/27/13 77/91/13 78/93/13
f 28/29/14 78/93/14 79/95/14
f 30/31/15 79/95/15 80/97/15
f 32/33/16 80/97/16 81/99/16
f 34/35/17 81/99/17 82/101/17
f 36/37/18 82/101/18 83/103/18
f 38/39/19 83/103/19 84/105/19
f 40/41/20 84/105/20 85/107/20
f 42/43/21 85/107/21 86/109/21
f 44/45/22 86/109/22 87/111/22
f 46/47/23 87/111/23 88/113/23
f 48/49/24 88/113/24 89/115/24
f 50/51/25 89/115/25 90/117/25
f 52/53/26 90/117/26 91/119/26
f 54/55/27 91/119/27 92/121/27
f 56/57/28 92/121/28 93/123/28
f 58/59/29 93/123/29 94/125/29
f 60/61/30 94/125/30 95/127/30
f 32/33/31 112/146/31 111/145/31
f 62/63/32 95/127/32 96/129/32
f 64/65/33 96/129/33 65/67/33
f 47/48/7 45/46/7 119/153/7
f 3/4/34 66/70/34 65/68/34
f 3/4/34 5/6/34 67/72/34
f 5/6/34 7/8/34 68/74/34
f 7/8/34 9/10/34 69/76/34
f 11/12/34 70/78/34 69/76/34
f 11/12/34 13/14/34 71/80/34
f 13/14/34 15/16/34 72/82/34
f 15/16/34 17/18/34 73/84/34
f 17/18/34 19/20/34 74/86/34
f 19/20/34 21/22/34 75/88/34
f 23/24/34 76/90/34 75/88/34
f 23/24/34 25/26/34 77/92/34
f 27/28/34 78/94/34 77/92/34
f 27/28/34 29/30/34 79/96/34
f 29/30/34 31/32/34 80/98/34
f 33/34/34 81/100/34 80/98/34
f 35/36/34 82/102/34 81/100/34
f 35/36/34 37/38/34 83/104/34
f 37/38/34 39/40/34 84/106/34
f 39/40/34 41/42/34 85/108/34
f 41/42/34 43/44/34 86/110/34
f 43/44/34 45/46/34 87/112/34
f 45/46/34 47/48/34 88/114/34
f 49/50/34 89/116/34 88/114/34
f 49/50/34 51/52/34 90/118/34
f 51/52/34 53/54/34 91/120/34
f 53/54/34 55/56/34 92/122/34
f 55/56/34 57/58/34 93/124/34
f 57/58/34 59/60/34 94/126/34
f 59/60/34 61/62/34 95/128/34
f 61/62/34 63/64/34 96/130/34
f 63/64/34 1/1/34 65/68/34
f 32/33/35 34/35/35 113/147/35
f 21/22/26 19/20/26 106/140/26
f 49/50/8 47/48/8 120/154/8
f 23/24/27 21/22/27 107/141/27
f 51/52/9 49/50/9 121/155/9
f 25/26/28 23/24/28 108/142/28
f 53/54/10 51/52/10 122/156/10
f 27/28/29 25/26/29 109/143/29
f 55/56/11 53/54/11 123/157/11
f 29/30/30 27/28/30 110/144/30
f 3/4/17 1/1/17 97/131/17
f 57/58/12 55/56/12 124/158/12
f 31/32/32 29/30/32 111/145/32
f 5/6/18 3/4/18 98/132/18
f 59/60/13 57/58/13 125/159/13
f 33/34/33 31/32/33 112/146/33
f 7/8/19 5/6/19 99/133/19
f 61/62/14 59/60/14 126/160/14
f 35/36/1 33/34/1 113/147/1
f 9/10/20 7/8/20 100/134/20
f 63/64/15 61/62/15 127/161/15
f 37/38/2 35/36/2 114/148/2
f 11/12/21 9/10/21 101/135/21
f 1/1/16 63/64/16 128/162/16
f 39/40/3 37/38/3 115/149/3
f 13/14/22 11/12/22 102/136/22
f 41/42/4 39/40/4 116/150/4
f 15/16/23 13/14/23 103/137/23
f 43/44/5 41/42/5 117/151/5
f 17/18/24 15/16/24 104/138/24
f 45/46/6 43/44/6 118/152/6
f 19/20/25 17/18/25 105/139/25
f 34/35/36 36/37/36 114/148/36
f 28/29/37 30/31/37 111/145/37
f 26/27/38 28/29/38 110/144/38
f 24/25/39 26/27/39 109/143/39
f 24/25/40 108/142/40 107/141/40
f 20/21/41 22/23/41 107/141/41
f 18/19/42 20/21/42 106/140/42
f 18/19/43 105/139/43 104/138/43
f 14/15/44 16/17/44 104/138/44
f 12/13/45 14/15/45 103/137/45
f 10/11/46 12/13/46 102/136/46
f 8/9/47 10/11/47 101/135/47
f 6/7/48 8/9/48 100/134/48
f 4/5/49 6/7/49 99/133/49
f 2/3/50 4/5/50 98/132/50
f 64/65/51 2/3/51 97/131/51
f 64/65/52 128/162/52 127/161/52
f 60/61/53 62/63/53 127/161/53
f 60/61/54 126/160/54 125/159/54
f 58/59/55 125/159/55 124/158/55
f 54/55/56 56/57/56 124/158/56
f 54/55/57 123/157/57 122/156/57
f 52/53/58 122/156/58 121/155/58
f 48/49/59 50/51/59 121/155/59
f 46/47/60 48/49/60 120/154/60
f 46/47/61 119/153/61 118/152/61
f 42/43/62 44/45/62 118/152/62
f 40/41/63 42/43/63 117/151/63
f 38/39/64 40/41/64 116/150/64
f 38/39/65 115/149/65 114/148/65
f 2/3/1 66/69/1 4/5/1
f 4/5/2 67/71/2 6/7/2
f 6/7/3 68/73/3 8/9/3
f 8/9/4 69/75/4 10/11/4
f 10/11/5 70/77/5 12/13/5
f 12/13/6 71/79/6 14/15/6
f 14/15/7 72/81/7 16/17/7
f 16/17/8 73/83/8 18/19/8
f 18/19/9 74/85/9 20/21/9
f 20/21/10 75/87/10 22/23/10
f 22/23/11 76/89/11 24/25/11
f 24/25/12 77/91/12 26/27/12
f 26/27/13 78/93/13 28/29/13
f 28/29/14 79/95/14 30/31/14
f 30/31/15 80/97/15 32/33/15
f 32/33/16 81/99/16 34/35/16
f 34/35/17 82/101/17 36/37/17
f 36/37/18 83/103/18 38/39/18
f 38/39/19 84/105/19 40/41/19
f 40/41/20 85/107/20 42/43/20
f 42/43/21 86/109/21 44/45/21
f 44/45/22 87/111/22 46/47/22
f 46/47/23 88/113/23 48/49/23
f 48/49/24 89/115/24 50/51/24
f 50/51/25 90/117/25 52/53/25
f 52/53/26 91/119/26 54/55/26
f 54/55/27 92/121/27 56/57/27
f 56/57/28 93/123/28 58/59/28
f 58/59/29 94/125/29 60/61/29
f 60/61/30 95/127/30 62/63/30
f 32/33/31 111/145/31 30/31/31
f 62/63/32 96/129/32 64/65/32
f 64/65/33 65/67/33 2/2/33
f 47/48/7 119/153/7 120/154/7
f 3/4/34 65/68/34 1/1/34
f 3/4/34 67/72/34 66/70/34
f 5/6/34 68/74/34 67/72/34
f 7/8/34 69/76/34 68/74/34
f 11/12/34 69/76/34 9/10/34
f 11/12/34 71/80/34 70/78/34
f 13/14/34 72/82/34 71/80/34
f 15/16/34 73/84/34 72/82/34
f 17/18/34 74/86/34 73/84/34
f 19/20/34 75/88/34 74/86/34
f 23/24/34 75/88/34 21/22/34
f 23/24/34 77/92/34 76/90/34
f 27/28/34 77/92/34 25/26/34
f 27/28/34 79/96/34 78/94/34
f 29/30/34 80/98/34 79/96/34
f 33/34/34 80/98/34 31/32/34
f 35/36/34 81/100/34 33/34/34
f 35/36/34 83/104/34 82/102/34
f 37/38/34 84/106/34 83/104/34
f 39/40/34 85/108/34 84/106/34
f 41/42/34 86/110/34 85/108/34
f 43/44/34 87/112/34 86/110/34
f 45/46/34 88/114/34 87/112/34
f 49/50/34 88/114/34 47/48/34
f 49/50/34 90/118/34 89/116/34
f 51/52/34 91/120/34 90/118/34
f 53/54/34 92/122/34 91/120/34
f 55/56/34 93/124/34 92/122/34
f 57/58/34 94/126/34 93/124/34
f 59/60/34 95/128/34 94/126/34
f 61/62/34 96/130/34 95/128/34
f 63/64/34 65/68/34 96/130/34
f 32/33/35 113/147/35 112/146/35
f 21/22/26 106/140/26 107/141/26
f 49/50/8 120/154/8 121/155/8
f 23/24/27 107/141/27 108/142/27
f 51/52/9 121/155/9 122/156/9
f 25/26/28 108/142/28 109/143/28
f 53/54/10 122/156/10 123/157/10
f 27/28/29 109/143/29 110/144/29
f 55/56/11 123/157/11 124/158/11
f 29/30/30 110/144/30 111/145/30
f 3/4/17 97/131/17 98/132/17
f 57/58/12 124/158/12 125/159/12
f 31/32/32 111/145/32 112/146/32
f 5/6/18 98/132/18 99/133/18
f 59/60/13 125/159/13 126/160/13
f 33/34/33 112/146/33 113/147/33
f 7/8/19 99/133/19 100/134/19
f 61/62/14 126/160/14 127/161/14
f 35/36/1 113/147/1 114/148/1
f 9/10/20 100/134/20 101/135/20
f 63/64/15 127/161/15 128/162/15
f 37/38/2 114/148/2 115/149/2
f 11/12/21 101/135/21 102/136/21
f 1/1/16 128/162/16 97/131/16
f 39/40/3 115/149/3 116/150/3
f 13/14/22 102/136/22 103/137/22
f 41/42/4 116/150/4 117/151/4
f 15/16/23 103/137/23 104/138/23
f 43/44/5 117/151/5 118/152/5
f 17/18/24 104/138/24 105/139/24
f 45/46/6 118/152/6 119/153/6
f 19/20/25 105/139/25 106/140/25
f 34/35/36 114/148/36 113/147/36
f 28/29/37 111/145/37 110/144/37
f 26/27/38 110/144/38 109/143/38
f 24/25/39 109/143/39 108/142/39
f 24/25/40 107/141/40 22/23/40
f 20/21/41 107/141/41 106/140/41
f 18/19/42 106/140/42 105/139/42
f 18/19/43 104/138/43 16/17/43
f 14/15/44 104/138/44 103/137/44
f 12/13/45 103/137/45 102/136/45
f 10/11/46 102/136/46 101/135/46
f 8/9/47 101/135/47 100/134/47
f 6/7/48 100/134/48 99/133/48
f 4/5/49 99/133/49 98/132/49
f 2/3/50 98/132/50 97/131/50
f 64/65/51 97/131/51 128/162/51
f 64/65/52 127/161/52 62/63/52
f 60/61/53 127/161/53 126/160/53
f 60/61/54 125/159/54 58/59/54
f 58/59/55 124/158/55 56/57/55
f 54/55/56 124/158/56 123/157/56
f 54/55/57 122/156/57 52/53/57
f 52/53/58 121/155/58 50/51/58
f 48/49/59 121/155/59 120/154/59
f 46/47/60 120/154/60 119/153/60
f 46/47/61 118/152/61 44/45/61
f 42/43/62 118/152/62 117/151/62
f 40/41/63 117/151/63 116/150/63
f 38/39/64 116/150/64 115/149/64
f 38/39/65 114/148/65 36/37/65
