# Blender 3.5.1
# www.blender.org
o Cylinder.022
v -0.000000 2.216160 -1.606378
v -0.000000 2.213578 -1.641749
v 0.013378 2.219744 -1.606378
v 0.014669 2.217509 -1.641749
v 0.023172 2.229538 -1.606378
v 0.025408 2.228247 -1.641749
v 0.026756 2.242916 -1.606378
v 0.029338 2.242916 -1.641749
v 0.023172 2.256294 -1.606378
v 0.025408 2.257585 -1.641749
v 0.013378 2.266088 -1.606378
v 0.014669 2.268324 -1.641749
v 0.000000 2.269673 -1.606378
v 0.000000 2.272254 -1.641749
v -0.013378 2.266088 -1.606378
v -0.014669 2.268324 -1.641749
v -0.023172 2.256294 -1.606378
v -0.025408 2.257585 -1.641749
v -0.026756 2.242916 -1.606378
v -0.029338 2.242916 -1.641749
v -0.023172 2.229538 -1.606378
v -0.025408 2.228247 -1.641749
v -0.013378 2.219744 -1.606378
v -0.014669 2.217509 -1.641749
v -0.000000 2.213578 -1.606378
v 0.014669 2.217509 -1.606378
v 0.025408 2.228247 -1.606378
v 0.029338 2.242916 -1.606378
v 0.025408 2.257585 -1.606378
v 0.014669 2.268324 -1.606378
v 0.000000 2.272254 -1.606378
v -0.014669 2.268324 -1.606378
v -0.025408 2.257585 -1.606378
v -0.029338 2.242916 -1.606378
v -0.025408 2.228247 -1.606378
v -0.014669 2.217509 -1.606378
v -0.000000 2.216160 -1.639838
v 0.013378 2.219744 -1.639838
v 0.023172 2.229538 -1.639838
v 0.026756 2.242916 -1.639838
v 0.023172 2.256294 -1.639838
v 0.013378 2.266088 -1.639838
v 0.000000 2.269673 -1.639838
v -0.013378 2.266088 -1.639838
v -0.023172 2.256294 -1.639838
v -0.026756 2.242916 -1.639838
v -0.023172 2.229538 -1.639838
v -0.013378 2.219744 -1.639838
v -0.000000 2.216160 -1.615903
v 0.013378 2.219744 -1.615903
v 0.023172 2.229538 -1.615903
v 0.026756 2.242916 -1.615903
v 0.023172 2.256294 -1.615903
v 0.013378 2.266088 -1.615903
v 0.000000 2.269673 -1.615903
v -0.013378 2.266088 -1.615903
v -0.023172 2.256294 -1.615903
v -0.026756 2.242916 -1.615903
v -0.023172 2.229538 -1.615903
v -0.013378 2.219744 -1.615903
v -0.000000 2.216160 -1.636543
v 0.013378 2.219744 -1.636543
v 0.023172 2.229538 -1.636543
v 0.026756 2.242916 -1.636543
v 0.023172 2.256294 -1.636543
v 0.013378 2.266088 -1.636543
v 0.000000 2.269673 -1.636543
v -0.013378 2.266088 -1.636543
v -0.023172 2.256294 -1.636543
v -0.026756 2.242916 -1.636543
v -0.023172 2.229538 -1.636543
v -0.013378 2.219744 -1.636543
vn 0.2588 -0.9659 -0.0000
vn 0.7071 -0.7071 -0.0000
vn 0.9659 -0.2588 -0.0000
vn 0.9659 0.2588 -0.0000
vn 0.7071 0.7071 -0.0000
vn 0.2588 0.9659 -0.0000
vn -0.2588 0.9659 -0.0000
vn -0.7071 0.7071 -0.0000
vn -0.9659 0.2588 -0.0000
vn -0.9659 -0.2588 -0.0000
vn -0.4301 -0.4301 -0.7937
vn -0.7071 -0.7071 -0.0000
vn -0.2588 -0.9659 -0.0000
vn -0.0000 -0.0000 1.0000
vn -0.5876 -0.1574 -0.7937
vn -0.5876 0.1574 -0.7937
vn -0.4301 0.4301 -0.7937
vn -0.1574 0.5876 -0.7937
vn 0.1574 0.5876 -0.7937
vn 0.4301 0.4301 -0.7937
vn 0.5876 0.1574 -0.7937
vn 0.5876 -0.1574 -0.7937
vn 0.4301 -0.4301 -0.7937
vn 0.1574 -0.5876 -0.7937
vn -0.1574 -0.5876 -0.7937
vn -0.0000 -0.0000 -1.0000
vt 0.750000 0.468880
vt 0.000000 1.000000
vt 1.000000 1.000000
vt 0.859440 0.439556
vt 0.916667 1.000000
vt 0.939556 0.359440
vt 0.833333 1.000000
vt 0.968880 0.250000
vt 0.750000 1.000000
vt 0.939556 0.140560
vt 0.666667 1.000000
vt 0.859440 0.060444
vt 0.583333 1.000000
vt 0.750000 0.031120
vt 0.500000 1.000000
vt 0.640560 0.060444
vt 0.416667 1.000000
vt 0.560444 0.140560
vt 0.333333 1.000000
vt 0.531120 0.250000
vt 0.250000 1.000000
vt 0.560444 0.359440
vt 0.166667 1.000000
vt 0.640560 0.439556
vt 0.083333 1.000000
vt 1.000000 0.500000
vt 0.000000 0.500000
vt 0.750000 0.490000
vt 0.916667 0.500000
vt 0.870000 0.457846
vt 0.833333 0.500000
vt 0.957846 0.370000
vt 0.750000 0.500000
vt 0.990000 0.250000
vt 0.666667 0.500000
vt 0.957846 0.130000
vt 0.583333 0.500000
vt 0.870000 0.042154
vt 0.500000 0.500000
vt 0.750000 0.010000
vt 0.416667 0.500000
vt 0.630000 0.042154
vt 0.333333 0.500000
vt 0.542154 0.130000
vt 0.250000 0.500000
vt 0.510000 0.250000
vt 0.166667 0.500000
vt 0.542154 0.370000
vt 0.083333 0.500000
vt 0.630000 0.457846
vt 0.750000 0.468880
vt 0.859440 0.439556
vt 0.939556 0.359440
vt 0.968880 0.250000
vt 0.939556 0.140560
vt 0.859440 0.060444
vt 0.750000 0.031120
vt 0.640560 0.060444
vt 0.560444 0.140560
vt 0.531120 0.250000
vt 0.560444 0.359440
vt 0.640560 0.439556
vt 0.000000 0.000000
vt 0.750000 0.468880
vt 0.000000 0.000000
vt 0.859440 0.439556
vt 0.000000 0.000000
vt 0.939556 0.359440
vt 0.000000 0.000000
vt 0.968880 0.250000
vt 0.000000 0.000000
vt 0.939556 0.140560
vt 0.000000 0.000000
vt 0.859440 0.060444
vt 0.000000 0.000000
vt 0.750000 0.031120
vt 0.000000 0.000000
vt 0.640560 0.060444
vt 0.000000 0.000000
vt 0.560444 0.140560
vt 0.000000 0.000000
vt 0.531120 0.250000
vt 0.000000 0.000000
vt 0.560444 0.359440
vt 0.000000 0.000000
vt 0.640560 0.439556
vt 0.000000 0.000000
vt 0.750000 0.468880
vt 0.000000 0.000000
vt 0.859440 0.439556
vt 0.000000 0.000000
vt 0.939556 0.359440
vt 0.000000 0.000000
vt 0.968880 0.250000
vt 0.000000 0.000000
vt 0.939556 0.140560
vt 0.000000 0.000000
vt 0.859440 0.060444
vt 0.000000 0.000000
vt 0.750000 0.031120
vt 0.000000 0.000000
vt 0.640560 0.060444
vt 0.000000 0.000000
vt 0.560444 0.140560
vt 0.000000 0.000000
vt 0.531120 0.250000
vt 0.000000 0.000000
vt 0.560444 0.359440
vt 0.000000 0.000000
vt 0.640560 0.439556
s 0
f 2/3/1 26/29/1 25/26/1
f 4/5/2 27/31/2 26/29/2
f 6/7/3 28/33/3 27/31/3
f 8/9/4 29/35/4 28/33/4
f 10/11/5 30/37/5 29/35/5
f 12/13/6 31/39/6 30/37/6
f 14/15/7 32/41/7 31/39/7
f 16/17/8 33/43/8 32/41/8
f 18/19/9 34/45/9 33/43/9
f 20/21/10 35/47/10 34/45/10
f 12/13/11 41/55/11 42/56/11
f 22/23/12 36/49/12 35/47/12
f 24/25/13 25/27/13 36/49/13
f 5/6/8 38/52/8 3/4/8
f 3/4/14 25/28/14 26/30/14
f 5/6/14 26/30/14 27/32/14
f 5/6/14 28/34/14 7/8/14
f 9/10/14 28/34/14 29/36/14
f 9/10/14 30/38/14 11/12/14
f 11/12/14 31/40/14 13/14/14
f 13/14/14 32/42/14 15/16/14
f 15/16/14 33/44/14 17/18/14
f 17/18/14 34/46/14 19/20/14
f 19/20/14 35/48/14 21/22/14
f 21/22/14 36/50/14 23/24/14
f 23/24/14 25/28/14 1/1/14
f 8/9/15 41/55/15 10/11/15
f 19/20/3 45/59/3 17/18/3
f 13/14/13 42/56/13 11/12/13
f 7/8/9 39/53/9 5/6/9
f 21/22/4 46/60/4 19/20/4
f 15/16/1 43/57/1 13/14/1
f 9/10/10 40/54/10 7/8/10
f 23/24/5 47/61/5 21/22/5
f 3/4/7 37/51/7 1/1/7
f 17/18/2 44/58/2 15/16/2
f 11/12/12 41/55/12 9/10/12
f 1/1/6 48/62/6 23/24/6
f 6/7/16 40/54/16 8/9/16
f 6/7/17 38/52/17 39/53/17
f 2/3/18 38/52/18 4/5/18
f 2/3/19 48/62/19 37/51/19
f 22/23/20 48/62/20 24/25/20
f 20/21/21 47/61/21 22/23/21
f 18/19/22 46/60/22 20/21/22
f 16/17/23 45/59/23 18/19/23
f 14/15/24 44/58/24 16/17/24
f 12/13/25 43/57/25 14/15/25
f 11/12/6 55/76/6 13/14/6
f 58/81/26 54/73/26 50/65/26
f 5/6/3 52/70/3 7/8/3
f 19/20/10 59/84/10 21/22/10
f 13/14/7 56/78/7 15/16/7
f 7/8/4 53/72/4 9/10/4
f 21/22/12 60/86/12 23/24/12
f 1/1/1 50/66/1 3/4/1
f 15/16/8 57/80/8 17/18/8
f 9/10/5 54/74/5 11/12/5
f 23/24/13 49/64/13 1/1/13
f 3/4/2 51/68/2 5/6/2
f 17/18/9 58/82/9 19/20/9
f 45/59/3 70/106/3 46/60/3
f 70/105/26 66/97/26 62/89/26
f 42/56/13 67/100/13 43/57/13
f 39/53/9 64/94/9 40/54/9
f 46/60/4 71/108/4 47/61/4
f 43/57/1 68/102/1 44/58/1
f 40/54/10 65/96/10 41/55/10
f 47/61/5 72/110/5 48/62/5
f 37/51/7 62/90/7 38/52/7
f 44/58/2 69/104/2 45/59/2
f 41/55/12 66/98/12 42/56/12
f 48/62/6 61/88/6 37/51/6
f 38/52/8 63/92/8 39/53/8
f 2/3/1 4/5/1 26/29/1
f 4/5/2 6/7/2 27/31/2
f 6/7/3 8/9/3 28/33/3
f 8/9/4 10/11/4 29/35/4
f 10/11/5 12/13/5 30/37/5
f 12/13/6 14/15/6 31/39/6
f 14/15/7 16/17/7 32/41/7
f 16/17/8 18/19/8 33/43/8
f 18/19/9 20/21/9 34/45/9
f 20/21/10 22/23/10 35/47/10
f 12/13/11 10/11/11 41/55/11
f 22/23/12 24/25/12 36/49/12
f 24/25/13 2/2/13 25/27/13
f 5/6/8 39/53/8 38/52/8
f 3/4/14 1/1/14 25/28/14
f 5/6/14 3/4/14 26/30/14
f 5/6/14 27/32/14 28/34/14
f 9/10/14 7/8/14 28/34/14
f 9/10/14 29/36/14 30/38/14
f 11/12/14 30/38/14 31/40/14
f 13/14/14 31/40/14 32/42/14
f 15/16/14 32/42/14 33/44/14
f 17/18/14 33/44/14 34/46/14
f 19/20/14 34/46/14 35/48/14
f 21/22/14 35/48/14 36/50/14
f 23/24/14 36/50/14 25/28/14
f 8/9/15 40/54/15 41/55/15
f 19/20/3 46/60/3 45/59/3
f 13/14/13 43/57/13 42/56/13
f 7/8/9 40/54/9 39/53/9
f 21/22/4 47/61/4 46/60/4
f 15/16/1 44/58/1 43/57/1
f 9/10/10 41/55/10 40/54/10
f 23/24/5 48/62/5 47/61/5
f 3/4/7 38/52/7 37/51/7
f 17/18/2 45/59/2 44/58/2
f 11/12/12 42/56/12 41/55/12
f 1/1/6 37/51/6 48/62/6
f 6/7/16 39/53/16 40/54/16
f 6/7/17 4/5/17 38/52/17
f 2/3/18 37/51/18 38/52/18
f 2/3/19 24/25/19 48/62/19
f 22/23/20 47/61/20 48/62/20
f 20/21/21 46/60/21 47/61/21
f 18/19/22 45/59/22 46/60/22
f 16/17/23 44/58/23 45/59/23
f 14/15/24 43/57/24 44/58/24
f 12/13/25 42/56/25 43/57/25
f 11/12/6 54/74/6 55/76/6
f 50/65/26 49/63/26 60/85/26
f 60/85/26 59/83/26 58/81/26
f 58/81/26 57/79/26 56/77/26
f 56/77/26 55/75/26 54/73/26
f 54/73/26 53/71/26 52/69/26
f 52/69/26 51/67/26 50/65/26
f 50/65/26 60/85/26 58/81/26
f 58/81/26 56/77/26 54/73/26
f 54/73/26 52/69/26 50/65/26
f 5/6/3 51/68/3 52/70/3
f 19/20/10 58/82/10 59/84/10
f 13/14/7 55/76/7 56/78/7
f 7/8/4 52/70/4 53/72/4
f 21/22/12 59/84/12 60/86/12
f 1/1/1 49/64/1 50/66/1
f 15/16/8 56/78/8 57/80/8
f 9/10/5 53/72/5 54/74/5
f 23/24/13 60/86/13 49/64/13
f 3/4/2 50/66/2 51/68/2
f 17/18/9 57/80/9 58/82/9
f 45/59/3 69/104/3 70/106/3
f 62/89/26 61/87/26 72/109/26
f 72/109/26 71/107/26 70/105/26
f 70/105/26 69/103/26 68/101/26
f 68/101/26 67/99/26 66/97/26
f 66/97/26 65/95/26 64/93/26
f 64/93/26 63/91/26 62/89/26
f 62/89/26 72/109/26 70/105/26
f 70/105/26 68/101/26 66/97/26
f 66/97/26 64/93/26 62/89/26
f 42/56/13 66/98/13 67/100/13
f 39/53/9 63/92/9 64/94/9
f 46/60/4 70/106/4 71/108/4
f 43/57/1 67/100/1 68/102/1
f 40/54/10 64/94/10 65/96/10
f 47/61/5 71/108/5 72/110/5
f 37/51/7 61/88/7 62/90/7
f 44/58/2 68/102/2 69/104/2
f 41/55/12 65/96/12 66/98/12
f 48/62/6 72/110/6 61/88/6
f 38/52/8 62/90/8 63/92/8
