# Blender 3.5.1
# www.blender.org
mtllib kacaMobil.mtl
o wheel
o vehicle.004
v 1.093265 0.474719 2.443161
v 1.093265 0.156433 2.472452
v 1.953048 0.477027 2.443133
v 1.999738 0.154726 2.472623
vn -0.0002 0.0916 0.9958
vn -0.0000 0.0911 0.9958
vt 0.625822 0.342800
vt 0.661283 0.342800
vt 0.625565 0.438755
vt 0.661474 0.443966
s 0
usemtl HUMVEE_M242
f 2/2/1 3/3/1 1/1/1
f 2/2/2 4/4/2 3/3/2
o vehicle.005
v 0.980412 0.474719 2.443161
v 0.980412 0.156433 2.472452
v 0.120629 0.477028 2.443133
v 0.073938 0.154727 2.472623
vn 0.0002 0.0916 0.9958
vn -0.0000 0.0911 0.9958
vt 0.625822 0.330206
vt 0.661283 0.330206
vt 0.625565 0.234251
vt 0.661474 0.229040
s 0
usemtl HUMVEE_M242
f 7/7/3 6/6/3 5/5/3
f 7/7/4 8/8/4 6/6/4
o vehicle.006
v 2.091896 0.060179 2.281523
v 2.043931 0.367922 2.279576
v 2.091896 0.060179 1.766706
v 2.043931 0.367922 1.770121
v 2.091896 0.060179 1.437558
v 2.043931 0.367922 1.435611
v 2.091896 0.060179 0.922741
v 2.043931 0.367922 0.926156
v -0.018219 0.060180 2.281523
v 0.029746 0.367923 2.279576
v -0.018219 0.060180 1.766706
v 0.029746 0.367923 1.770121
v -0.018219 0.060180 1.437558
v 0.029746 0.367923 1.435611
v -0.018219 0.060180 0.922741
v 0.029746 0.367923 0.926156
v 1.580831 0.367499 -0.523845
v 1.173034 0.367500 -0.523845
v 1.580830 0.074395 -0.523846
v 1.175158 0.076520 -0.523846
v 1.580830 0.127227 -0.523845
v 1.174593 0.153884 -0.523845
vn 0.9881 0.1540 -0.0000
vn -0.9881 0.1540 -0.0000
vn -0.0000 -0.0000 -1.0000
vn -0.9798 -0.0082 -0.1997
vt 0.713872 0.556915
vt 0.714138 0.591332
vt 0.771293 0.556915
vt 0.770961 0.591332
vt 0.610949 0.556915
vt 0.611216 0.591332
vt 0.668370 0.556915
vt 0.668038 0.591332
vt 0.673396 0.784837
vt 0.673377 0.819297
vt 0.616027 0.784837
vt 0.616605 0.819297
vt 0.013344 0.599613
vt 0.013364 0.565153
vt 0.070714 0.599613
vt 0.070136 0.565153
vt 0.523136 0.276132
vt 0.523136 0.321243
vt 0.555829 0.276118
vt 0.555592 0.320994
vt 0.549936 0.276121
vt 0.546963 0.321060
s 0
usemtl HUMVEE_M242
f 9/9/5 12/12/5 10/10/5
f 13/13/5 16/16/5 14/14/5
f 20/20/6 17/17/6 18/18/6
f 24/24/6 21/21/6 22/22/6
f 29/29/7 28/28/7 26/26/7
f 9/9/5 11/11/5 12/12/5
f 13/13/5 15/15/5 16/16/5
f 20/20/6 19/19/6 17/17/6
f 24/24/6 23/23/6 21/21/6
f 29/29/7 27/27/7 28/28/7
f 28/28/8 30/30/8 26/26/8
f 26/26/7 25/25/7 29/29/7
o vehicle.007
v 0.492846 0.367500 -0.523845
v 0.900643 0.367500 -0.523845
v 0.492846 0.074396 -0.523846
v 0.898519 0.076520 -0.523846
v 0.492846 0.127227 -0.523845
v 0.899083 0.153885 -0.523845
vn -0.0000 -0.0000 -1.0000
vn 0.9650 -0.0108 -0.2621
vt 0.523136 0.396485
vt 0.523136 0.351375
vt 0.555829 0.396471
vt 0.555592 0.351596
vt 0.549936 0.396474
vt 0.546963 0.351537
s 0
usemtl HUMVEE_M242
f 35/35/9 32/32/9 34/34/9
f 35/35/9 31/31/9 32/32/9
f 32/32/10 36/36/10 34/34/10
f 34/34/9 33/33/9 35/35/9
o vehicle.008
v -0.362370 0.290601 2.541391
v -0.362370 0.178518 2.541391
v -0.196038 0.290601 2.541391
v -0.196038 0.178518 2.541391
v 2.436047 0.290600 2.541391
v 2.436047 0.178517 2.541391
v 2.269715 0.290600 2.541391
v 2.269715 0.178517 2.541391
vn -0.0000 -0.0000 -1.0000
vt 0.132399 0.980563
vt 0.144901 0.980558
vt 0.132399 0.962163
vt 0.144901 0.962158
vt 0.966153 0.361320
vt 0.953651 0.361326
vt 0.966153 0.342921
vt 0.953651 0.342926
s 0
usemtl HUMVEE_M242
f 37/37/11 40/40/11 38/38/11
f 41/41/11 44/44/11 43/43/11
f 37/37/11 39/39/11 40/40/11
f 41/41/11 42/42/11 44/44/11
