# Blender 3.5.1
# www.blender.org
mtllib lampuMerahMobil.mtl
o vehicle.003
v 0.163503 -0.182088 3.805571
v 0.171257 -0.160784 3.805571
v 0.152671 -0.145188 3.781309
v 0.145869 -0.139480 3.748166
v 0.190891 -0.149448 3.805571
v 0.186678 -0.125555 3.781309
v 0.185136 -0.116809 3.748166
v 0.196646 -0.182088 3.814452
v 0.213218 -0.153385 3.805571
v 0.225349 -0.132374 3.781309
v 0.229789 -0.124683 3.748166
v 0.227790 -0.170752 3.805571
v 0.250589 -0.162454 3.781309
v 0.258934 -0.159417 3.748166
v 0.227790 -0.193423 3.805571
v 0.250589 -0.201721 3.781309
v 0.258934 -0.204759 3.748166
v 0.213218 -0.210790 3.805571
v 0.225349 -0.231802 3.781309
v 0.229789 -0.239492 3.748166
v 0.190891 -0.214727 3.805571
v 0.186678 -0.238621 3.781309
v 0.185136 -0.247366 3.748166
v 0.171257 -0.203391 3.805571
v 0.152672 -0.218987 3.781309
v 0.145869 -0.224695 3.748166
v 0.139241 -0.182088 3.781309
v 0.130361 -0.182088 3.748166
v 1.910173 -0.182088 3.805571
v 1.902419 -0.160785 3.805571
v 1.921005 -0.145189 3.781309
v 1.927808 -0.139481 3.748166
v 1.882785 -0.149449 3.805571
v 1.886998 -0.125555 3.781309
v 1.888541 -0.116810 3.748166
v 1.877030 -0.182088 3.814452
v 1.860459 -0.153386 3.805571
v 1.848328 -0.132374 3.781309
v 1.843887 -0.124683 3.748166
v 1.845886 -0.170753 3.805571
v 1.823087 -0.162455 3.781309
v 1.814742 -0.159417 3.748166
v 1.845886 -0.193424 3.805571
v 1.823087 -0.201722 3.781309
v 1.814742 -0.204759 3.748166
v 1.860459 -0.210791 3.805571
v 1.848328 -0.231802 3.781309
v 1.843887 -0.239493 3.748166
v 1.882785 -0.214728 3.805571
v 1.886998 -0.238621 3.781309
v 1.888540 -0.247367 3.748166
v 1.902419 -0.203392 3.805571
v 1.921005 -0.218988 3.781309
v 1.927808 -0.224696 3.748166
v 1.934435 -0.182088 3.781309
v 1.943316 -0.182088 3.748166
vn -0.4849 0.8398 0.2442
vn -0.3644 0.6311 0.6848
vn 0.1684 0.9550 0.2442
vn 0.1265 0.7177 0.6848
vn 0.7429 0.6233 0.2442
vn 0.5582 0.4684 0.6848
vn 0.7287 -0.0000 0.6848
vn 0.7429 -0.6233 0.2442
vn 0.5582 -0.4684 0.6848
vn 0.1684 -0.9550 0.2442
vn 0.1265 -0.7177 0.6848
vn -0.4849 -0.8398 0.2442
vn -0.3644 -0.6311 0.6848
vn -0.9112 -0.3317 0.2442
vn -0.9113 0.3317 0.2442
vn -0.6848 0.2492 0.6848
vn -0.2577 0.0938 0.9617
vn -0.1371 0.2375 0.9617
vn 0.0476 0.2701 0.9617
vn 0.2101 0.1763 0.9617
vn 0.2742 -0.0000 0.9617
vn 0.2101 -0.1763 0.9617
vn 0.0476 -0.2701 0.9617
vn -0.1371 -0.2375 0.9617
vn -0.6848 -0.2492 0.6848
vn -0.2577 -0.0938 0.9617
vn 0.4849 0.8398 0.2442
vn 0.3644 0.6311 0.6848
vn -0.1684 0.9550 0.2442
vn -0.1265 0.7177 0.6848
vn -0.7429 0.6233 0.2442
vn -0.5582 0.4684 0.6848
vn -0.9697 -0.0000 0.2442
vn -0.7287 -0.0000 0.6848
vn -0.7429 -0.6233 0.2442
vn -0.5582 -0.4684 0.6848
vn -0.1684 -0.9550 0.2442
vn -0.1265 -0.7177 0.6848
vn 0.4849 -0.8398 0.2442
vn 0.3644 -0.6311 0.6848
vn 0.9112 -0.3317 0.2442
vn 0.9113 0.3317 0.2442
vn 0.6848 0.2492 0.6848
vn 0.2577 0.0938 0.9617
vn 0.1371 0.2375 0.9617
vn -0.0476 0.2701 0.9617
vn -0.2101 0.1763 0.9617
vn -0.2742 -0.0000 0.9617
vn -0.2101 -0.1763 0.9617
vn -0.0476 -0.2701 0.9617
vn 0.1371 -0.2375 0.9617
vn 0.6848 -0.2492 0.6848
vn 0.2577 -0.0938 0.9617
vn -0.9113 -0.3317 0.2442
vn 0.9113 -0.3317 0.2442
vt 0.614311 0.976384
vt 0.438624 0.983324
vt 0.615176 0.978762
vt 0.436228 0.983362
vt 0.877089 0.980750
vt 0.613102 0.980470
vt 0.434534 0.980567
vt 0.433912 0.976838
vt 0.877870 0.977035
vt 0.617366 0.980027
vt 0.872809 0.983445
vt 0.616896 0.982661
vt 0.873289 0.980642
vt 0.873483 0.976911
vt 0.618007 0.976396
vt 0.870320 0.983445
vt 0.619856 0.979587
vt 0.868978 0.980642
vt 0.789501 0.595250
vt 0.621209 0.981900
vt 0.868505 0.976911
vt 0.792167 0.597943
vt 0.621481 0.977649
vt 0.789501 0.590179
vt 0.624024 0.978543
vt 0.791291 0.592364
vt 0.794234 0.594611
vt 0.790852 0.588040
vt 0.621481 0.975119
vt 0.793631 0.588660
vt 0.624024 0.974161
vt 0.796936 0.590334
vt 0.619856 0.973181
vt 0.885377 0.983454
vt 0.621209 0.970805
vt 0.795427 0.585872
vt 0.886722 0.980782
vt 0.799010 0.587114
vt 0.887221 0.977096
vt 0.882884 0.983454
vt 0.617366 0.972742
vt 0.882404 0.980782
vt 0.616896 0.970044
vt 0.882235 0.977096
vt 0.615176 0.974007
vt 0.440979 0.983362
vt 0.613102 0.972235
vt 0.878624 0.980742
vt 0.442764 0.980567
vt 0.877870 0.977051
vt 0.443414 0.976838
vt 0.438684 0.980501
vt 0.438703 0.976763
vt 0.830370 0.594534
vt 0.829506 0.592156
vt 0.737861 0.213428
vt 0.720413 0.210747
vt 0.826820 0.592181
vt 0.738646 0.217143
vt 0.719788 0.214438
vt 0.830370 0.589779
vt 0.733579 0.210732
vt 0.828318 0.588063
vt 0.734076 0.213535
vt 0.734275 0.217267
vt 0.833195 0.592147
vt 0.832560 0.588514
vt 0.731087 0.210732
vt 0.070397 0.982376
vt 0.729760 0.213535
vt 0.832111 0.585872
vt 0.729292 0.217267
vt 0.066683 0.983226
vt 0.073089 0.978085
vt 0.835051 0.588953
vt 0.836424 0.586632
vt 0.070275 0.978954
vt 0.066541 0.979275
vt 0.836676 0.590891
vt 0.073089 0.975555
vt 0.070275 0.974573
vt 0.839239 0.589989
vt 0.066541 0.974216
vt 0.913745 0.694856
vt 0.836676 0.593421
vt 0.070397 0.971282
vt 0.839239 0.594371
vt 0.915106 0.697534
vt 0.915597 0.701222
vt 0.066683 0.970416
vt 0.835051 0.595359
vt 0.911258 0.694844
vt 0.910797 0.697513
vt 0.836424 0.597728
vt 0.910622 0.701198
vt 0.832560 0.595799
vt 0.906991 0.697534
vt 0.728644 0.210747
vt 0.832111 0.598490
vt 0.729292 0.214438
vt 0.906227 0.701222
vt 0.724549 0.210732
vt 0.828318 0.596299
vt 0.724564 0.214421
s 0
usemtl HUMVEE_M242
f 4/9/1 6/13/1 7/14/1
f 3/6/2 5/10/2 6/12/2
f 7/14/3 10/18/3 11/21/3
f 5/11/4 10/18/4 6/13/4
f 11/22/5 13/26/5 14/27/5
f 10/20/6 12/23/6 13/25/6
f 13/26/7 15/28/7 16/30/7
f 17/32/8 19/36/8 20/38/8
f 16/31/9 18/33/9 19/35/9
f 19/37/10 23/44/10 20/39/10
f 19/37/11 21/40/11 22/42/11
f 23/44/12 25/48/12 26/50/12
f 22/43/13 24/45/13 25/47/13
f 25/49/14 28/53/14 26/51/14
f 28/53/15 3/7/15 4/8/15
f 1/2/16 3/7/16 27/52/16
f 1/1/17 8/15/17 2/3/17
f 2/3/18 8/15/18 5/10/18
f 5/10/19 8/15/19 9/17/19
f 9/17/20 8/15/20 12/23/20
f 12/23/21 8/15/21 15/29/21
f 15/29/22 8/15/22 18/33/22
f 18/33/23 8/15/23 21/41/23
f 21/41/24 8/15/24 24/45/24
f 25/49/25 1/2/25 27/52/25
f 24/45/26 8/15/26 1/1/26
f 32/59/27 34/64/27 31/56/27
f 34/63/28 30/55/28 31/58/28
f 39/72/29 34/64/29 35/65/29
f 38/70/30 33/62/30 34/64/30
f 39/73/31 41/77/31 38/69/31
f 38/71/32 40/75/32 37/67/32
f 45/83/33 41/77/33 42/78/33
f 41/77/34 43/80/34 40/74/34
f 45/83/35 47/86/35 44/81/35
f 44/82/36 46/85/36 43/79/36
f 51/95/37 47/88/37 48/89/37
f 47/88/38 49/92/38 46/84/38
f 51/95/39 53/97/39 50/93/39
f 50/94/40 52/96/40 49/91/40
f 56/104/41 53/98/41 54/100/41
f 56/104/42 31/57/42 55/102/42
f 31/58/43 29/54/43 55/103/43
f 29/54/44 30/55/44 36/66/44
f 30/55/45 33/61/45 36/66/45
f 33/61/46 37/67/46 36/66/46
f 37/67/47 40/75/47 36/66/47
f 40/75/48 43/79/48 36/66/48
f 43/79/49 46/85/49 36/66/49
f 46/85/50 49/91/50 36/66/50
f 49/91/51 52/96/51 36/66/51
f 53/99/52 29/54/52 52/96/52
f 52/96/53 29/54/53 36/66/53
f 4/9/1 3/5/1 6/13/1
f 3/6/2 2/3/2 5/10/2
f 7/14/3 6/13/3 10/18/3
f 5/11/4 9/16/4 10/18/4
f 11/22/5 10/19/5 13/26/5
f 10/20/6 9/17/6 12/23/6
f 13/26/7 12/24/7 15/28/7
f 17/32/8 16/30/8 19/36/8
f 16/31/9 15/29/9 18/33/9
f 19/37/10 22/42/10 23/44/10
f 19/37/11 18/34/11 21/40/11
f 23/44/12 22/42/12 25/48/12
f 22/43/13 21/41/13 24/45/13
f 25/49/54 27/52/54 28/53/54
f 28/53/15 27/52/15 3/7/15
f 1/2/16 2/4/16 3/7/16
f 25/49/25 24/46/25 1/2/25
f 32/59/27 35/65/27 34/64/27
f 34/63/28 33/61/28 30/55/28
f 39/72/29 38/70/29 34/64/29
f 38/70/30 37/68/30 33/62/30
f 39/73/31 42/78/31 41/77/31
f 38/71/32 41/76/32 40/75/32
f 45/83/33 44/81/33 41/77/33
f 41/77/34 44/81/34 43/80/34
f 45/83/35 48/90/35 47/86/35
f 44/82/36 47/87/36 46/85/36
f 51/95/37 50/93/37 47/88/37
f 47/88/38 50/93/38 49/92/38
f 51/95/39 54/101/39 53/97/39
f 50/94/40 53/99/40 52/96/40
f 56/104/55 55/102/55 53/98/55
f 56/104/42 32/60/42 31/57/42
f 31/58/43 30/55/43 29/54/43
f 53/99/52 55/103/52 29/54/52
